<svg width="39" height="39" viewBox="0 0 39 39" fill="none" xmlns="http://www.w3.org/2000/svg">
<path d="M19.5 8.71813V4.875M19.5 8.71813C21.7508 8.80458 23.8797 9.76317 25.4364 11.3911C26.9931 13.0191 27.8554 15.1887 27.8411 17.4411V20.3661C27.8411 24.2434 30.875 25.2119 30.875 27.1505C30.875 28.1141 30.875 29.25 30.0007 29.25H8.99925C8.125 29.25 8.125 28.1141 8.125 27.1505C8.125 25.2119 11.1589 24.2434 11.1589 20.3661V17.4411C11.1446 15.1887 12.0069 13.0191 13.5636 11.3911C15.1203 9.76317 17.2492 8.80458 19.5 8.71813ZM14.1914 29.25C14.3441 30.6344 14.6884 31.7529 15.7259 32.6822C16.7633 33.6115 18.1072 34.1253 19.5 34.1253C20.8928 34.1253 22.2367 33.6115 23.2741 32.6822C24.3116 31.7529 25.2836 30.6344 25.4364 29.25H14.1914Z" stroke="#C3937C" stroke-width="2" stroke-linecap="round" stroke-linejoin="round"/>
</svg>
