<svg width="58" height="49" viewBox="0 0 58 49" fill="none" xmlns="http://www.w3.org/2000/svg">
<path d="M24.1663 10.2083L21.7497 8.16667V6.125M33.833 10.2083L36.2497 8.16667V6.125M28.9997 18.375V40.8333M28.9997 18.375C35.6731 18.375 41.083 22.9454 41.083 28.5833M28.9997 18.375C22.3262 18.375 16.9163 22.9454 16.9163 28.5833M28.9997 18.375C31.593 18.3809 34.1141 19.0973 36.1844 20.4167H36.2497V16.3333C36.2497 14.7089 35.4858 13.151 34.1262 12.0023C32.7666 10.8536 30.9225 10.2083 28.9997 10.2083C27.0769 10.2083 25.2328 10.8536 23.8731 12.0023C22.5135 13.151 21.7497 14.7089 21.7497 16.3333V20.4167H21.8149C23.8853 19.0973 26.4064 18.3809 28.9997 18.375ZM16.9163 28.5833H12.083M16.9163 28.5833V32.6667C16.9163 38.3046 22.3262 42.875 28.9997 42.875C35.6731 42.875 41.083 38.3046 41.083 32.6667V28.5833M45.9768 28.5833H41.083M16.9768 36.75H14.4997C13.8587 36.75 13.244 36.9651 12.7908 37.348C12.3376 37.7309 12.083 38.2502 12.083 38.7917V42.875M41.083 36.75H43.5601C44.201 36.75 44.8157 36.9651 45.2689 37.348C45.7221 37.7309 45.9768 38.2502 45.9768 38.7917V42.875M38.6663 22.4583H41.083C41.7239 22.4583 42.3386 22.2432 42.7919 21.8603C43.2451 21.4775 43.4997 20.9582 43.4997 20.4167V16.3333M19.3934 22.4583H16.9163C16.2754 22.4583 15.6607 22.2432 15.2075 21.8603C14.7543 21.4775 14.4997 20.9582 14.4997 20.4167V16.3333" stroke="#C3937C" stroke-width="3" stroke-linecap="round" stroke-linejoin="round"/>
</svg>
