<svg width="16" height="17" viewBox="0 0 16 17" fill="none" xmlns="http://www.w3.org/2000/svg">
<g id="bxs:sort-alt">
<path id="Vector" d="M4.15162 7.83331H11.8496C12.4243 7.83331 12.7296 7.15332 12.3476 6.72332L8.49895 2.39331C8.43653 2.32285 8.35986 2.26644 8.27401 2.2278C8.18816 2.18917 8.0951 2.16919 8.00096 2.16919C7.90682 2.16919 7.81375 2.18917 7.7279 2.2278C7.64205 2.26644 7.56538 2.32285 7.50295 2.39331L3.65295 6.72332C3.27095 7.15332 3.57629 7.83331 4.15162 7.83331ZM7.50229 14.606C7.56472 14.6764 7.64139 14.7329 7.72723 14.7715C7.81308 14.8101 7.90615 14.8301 8.00029 14.8301C8.09443 14.8301 8.1875 14.8101 8.27334 14.7715C8.35919 14.7329 8.43586 14.6764 8.49829 14.606L12.347 10.276C12.7296 9.84665 12.4243 9.16665 11.849 9.16665H4.15162C3.57695 9.16665 3.27162 9.84665 3.65362 10.2766L7.50229 14.606Z" fill="#C3937C"/>
</g>
</svg>
