<svg width="25" height="24" viewBox="0 0 25 24" fill="none" xmlns="http://www.w3.org/2000/svg">
<g id="calendar-month">
<path id="Union" fill-rule="evenodd" clip-rule="evenodd" d="M5.5 5C6.05228 5 6.5 4.55228 6.5 4C6.5 3.44771 6.94772 3 7.5 3C8.05229 3 8.5 3.44772 8.5 4C8.5 4.55228 8.94772 5 9.5 5H10.5C11.0523 5 11.5 4.55228 11.5 4C11.5 3.44771 11.9477 3 12.5 3C13.0523 3 13.5 3.44772 13.5 4C13.5 4.55228 13.9477 5 14.5 5H15.5C16.0523 5 16.5 4.55228 16.5 4C16.5 3.44771 16.9477 3 17.5 3C18.0523 3 18.5 3.44772 18.5 4C18.5 4.55228 18.9477 5 19.5 5C20.6046 5 21.5 5.89543 21.5 7V7.5V8C21.5 8.55228 21.0523 9 20.5 9H4.5C3.94772 9 3.5 8.55228 3.5 8V7.5V7C3.5 5.89543 4.39543 5 5.5 5ZM3.5 19V12C3.5 11.4477 3.94772 11 4.5 11H20.5C21.0523 11 21.5 11.4477 21.5 12V19C21.5 20.1046 20.6046 21 19.5 21H5.5C4.39543 21 3.5 20.1046 3.5 19ZM9.51 13C9.51 12.4477 9.06229 12 8.51 12C7.95772 12 7.51 12.4477 7.51 13C7.51 13.5523 7.95772 14 8.51 14C9.06229 14 9.51 13.5523 9.51 13ZM11.51 13C11.51 12.4477 11.9577 12 12.51 12C13.0623 12 13.51 12.4477 13.51 13C13.51 13.5523 13.0623 14 12.51 14C11.9577 14 11.51 13.5523 11.51 13ZM17.51 13C17.51 12.4477 17.0623 12 16.51 12C15.9577 12 15.51 12.4477 15.51 13C15.51 13.5523 15.9577 14 16.51 14C17.0623 14 17.51 13.5523 17.51 13ZM7.51 17C7.51 16.4477 7.95772 16 8.51 16C9.06229 16 9.51 16.4477 9.51 17C9.51 17.5523 9.06229 18 8.51 18C7.95772 18 7.51 17.5523 7.51 17ZM13.51 17C13.51 16.4477 13.0623 16 12.51 16C11.9577 16 11.51 16.4477 11.51 17C11.51 17.5523 11.9577 18 12.51 18C13.0623 18 13.51 17.5523 13.51 17ZM15.51 17C15.51 16.4477 15.9577 16 16.51 16C17.0623 16 17.51 16.4477 17.51 17C17.51 17.5523 17.0623 18 16.51 18C15.9577 18 15.51 17.5523 15.51 17Z" fill="#C3937C"/>
</g>
</svg>
