<svg width="50" height="43" viewBox="0 0 50 43" fill="none" xmlns="http://www.w3.org/2000/svg">
<path d="M22.917 7.5H8.33366C7.22859 7.5 6.16878 7.86875 5.38738 8.52513C4.60598 9.1815 4.16699 10.0717 4.16699 11V35.5C4.16699 36.4283 4.60598 37.3185 5.38738 37.9749C6.16878 38.6313 7.22859 39 8.33366 39H37.5003C38.6054 39 39.6652 38.6313 40.4466 37.9749C41.228 37.3185 41.667 36.4283 41.667 35.5V23.25" stroke="#C3937C" stroke-width="3" stroke-linecap="round" stroke-linejoin="round"/>
<path d="M38.542 4.87503C39.3708 4.17884 40.4949 3.78772 41.667 3.78772C42.8391 3.78772 43.9632 4.17884 44.792 4.87503C45.6208 5.57122 46.0864 6.51546 46.0864 7.50003C46.0864 8.4846 45.6208 9.42884 44.792 10.125L25.0003 26.75L16.667 28.5L18.7503 21.5L38.542 4.87503Z" stroke="#C3937C" stroke-width="3" stroke-linecap="round" stroke-linejoin="round"/>
</svg>
