<svg width="23" height="23" viewBox="0 0 23 23" fill="none" xmlns="http://www.w3.org/2000/svg">
<path d="M11.7987 4.70787C10.0918 4.70441 8.45094 5.35859 7.23092 6.53069C6.01061 7.70305 5.30928 9.29959 5.28017 10.9757C5.25107 12.6519 5.89657 14.271 7.07558 15.4834C8.25442 16.6957 9.87185 17.4041 11.5781 17.4574L11.5781 17.4575H11.5859H11.7116C13.0603 17.524 14.3895 17.116 15.4591 16.3061C16.5255 15.4985 17.2638 14.3443 17.5403 13.0502L17.5735 12.9597L17.6968 12.6236H17.3388H11.9518V9.999H20.3499C20.4002 10.4808 20.4221 10.9651 20.4157 11.4494C20.3708 14.0233 19.4714 16.1579 17.958 17.6485C16.4448 19.1389 14.3003 20.0027 11.733 20.003C11.7325 20.003 11.7321 20.003 11.7316 20.003L11.538 20.001C11.5377 20.001 11.5374 20.001 11.5372 20.0009C9.12022 19.9605 6.81972 18.9815 5.14129 17.281C3.46299 15.5807 2.54402 13.2983 2.5848 10.936C2.63588 8.60254 3.61559 6.37974 5.31684 4.74176C7.01826 3.1036 9.30681 2.18013 11.6949 2.16968H11.8553C13.9509 2.18308 15.9682 2.93181 17.5436 4.27362L15.5813 6.05942C14.5246 5.18601 13.1847 4.70597 11.7987 4.70787ZM11.7987 4.70787C11.7989 4.70787 11.799 4.70787 11.7991 4.70787L11.7986 4.95787L11.7983 4.70787C11.7984 4.70787 11.7986 4.70787 11.7987 4.70787Z" stroke="#C3937C" stroke-width="0.5"/>
</svg>
