<svg width="24" height="25" viewBox="0 0 24 25" fill="none" xmlns="http://www.w3.org/2000/svg">
<path d="M13.2131 10.7192C12.5772 10.0836 11.7148 9.72662 10.8157 9.72662C9.91659 9.72662 9.05427 10.0836 8.41829 10.7192L4.99299 14.1445C4.35719 14.7803 4 15.6427 4 16.5419C4 17.4411 4.35719 18.3035 4.99299 18.9393C5.62897 19.5749 6.49129 19.9319 7.39041 19.9319C8.28953 19.9319 9.15185 19.5749 9.78783 18.9393L10.1094 18.635M9.78783 14.1445C10.4237 14.7803 11.2861 15.1375 12.1853 15.1375C13.0844 15.1375 13.9468 14.7803 14.5827 14.1445L18.007 10.7192C18.6428 10.0834 19 9.22098 19 8.32179C19 7.4226 18.6428 6.56024 18.007 5.92438C17.3712 5.28888 16.509 4.93188 15.6101 4.93188C14.7111 4.93188 13.8489 5.28888 13.2131 5.92438L12.1853 6.88501" stroke="#C3937C" stroke-width="2" stroke-linecap="round" stroke-linejoin="round"/>
</svg>
