<svg width="24" height="25" viewBox="0 0 24 25" fill="none" xmlns="http://www.w3.org/2000/svg">
<path d="M2 12.9319H5" stroke="#C3937C" stroke-width="2" stroke-linecap="round" stroke-linejoin="round"/>
<path d="M19 12.9319H22" stroke="#C3937C" stroke-width="2" stroke-linecap="round" stroke-linejoin="round"/>
<path d="M12 2.93188V5.93188" stroke="#C3937C" stroke-width="2" stroke-linecap="round" stroke-linejoin="round"/>
<path d="M12 19.9319V22.9319" stroke="#C3937C" stroke-width="2" stroke-linecap="round" stroke-linejoin="round"/>
<path d="M12 19.9319C15.866 19.9319 19 16.7979 19 12.9319C19 9.06589 15.866 5.93188 12 5.93188C8.13401 5.93188 5 9.06589 5 12.9319C5 16.7979 8.13401 19.9319 12 19.9319Z" stroke="#C3937C" stroke-width="2" stroke-linecap="round" stroke-linejoin="round"/>
<path d="M12 15.9319C13.6569 15.9319 15 14.5887 15 12.9319C15 11.275 13.6569 9.93188 12 9.93188C10.3431 9.93188 9 11.275 9 12.9319C9 14.5887 10.3431 15.9319 12 15.9319Z" stroke="#C3937C" stroke-width="2" stroke-linecap="round" stroke-linejoin="round"/>
</svg>
