<svg width="24" height="25" viewBox="0 0 24 25" fill="none" xmlns="http://www.w3.org/2000/svg">
<path fill-rule="evenodd" clip-rule="evenodd" d="M11.9061 2.49355C13.3698 2.47517 14.8105 2.85859 16.0712 3.60206C17.332 4.34552 18.3646 5.42053 19.0565 6.71003C19.7484 7.99953 20.0731 9.45408 19.9953 10.9153C19.9201 12.3262 19.4725 13.6911 18.6991 14.8716C18.6638 14.9439 18.6195 15.0127 18.5662 15.0761L18.4584 15.2046C18.2804 15.4482 18.0889 15.6816 17.8848 15.9038L12.7729 22.1276C12.5831 22.3587 12.2998 22.4927 12.0008 22.4929C11.7017 22.4931 11.4182 22.3595 11.2281 22.1287L5.98183 15.7595L5.97989 15.7571C5.87603 15.6325 5.77316 15.505 5.67142 15.376L5.53751 15.2137C5.48589 15.1511 5.44281 15.0834 5.40848 15.0123C4.61637 13.8574 4.14086 12.5139 4.03111 11.1157C3.9166 9.65695 4.20467 8.1947 4.86395 6.88824C5.52323 5.58178 6.52845 4.48118 7.77015 3.70629C9.01186 2.9314 10.4424 2.51193 11.9061 2.49355ZM15 10.4971C15 12.1534 13.6569 13.4961 12 13.4961C10.3432 13.4961 9.00005 12.1534 9.00005 10.4971C9.00005 8.84086 10.3432 7.49818 12 7.49818C13.6569 7.49818 15 8.84086 15 10.4971Z" fill="#C3937C"/>
</svg>
