<svg width="22" height="21" viewBox="0 0 22 21" fill="none" xmlns="http://www.w3.org/2000/svg">
<rect x="0.25" y="0.25" width="21.5" height="20.5" stroke="#EAD9C9" stroke-width="0.5"/>
<path d="M14.6663 18.375V16.625C14.6663 15.6967 14.28 14.8065 13.5924 14.1501C12.9048 13.4937 11.9721 13.125 10.9997 13.125H5.49967C4.52721 13.125 3.59458 13.4937 2.90695 14.1501C2.21932 14.8065 1.83301 15.6967 1.83301 16.625V18.375" stroke="#C3937C" stroke-linecap="round" stroke-linejoin="round"/>
<path d="M8.24967 9.625C10.2747 9.625 11.9163 8.058 11.9163 6.125C11.9163 4.192 10.2747 2.625 8.24967 2.625C6.22463 2.625 4.58301 4.192 4.58301 6.125C4.58301 8.058 6.22463 9.625 8.24967 9.625Z" stroke="#C3937C" stroke-linecap="round" stroke-linejoin="round"/>
<path d="M20.167 18.375V16.625C20.1664 15.8495 19.896 15.0962 19.3982 14.4833C18.9005 13.8704 18.2036 13.4326 17.417 13.2388" stroke="#C3937C" stroke-linecap="round" stroke-linejoin="round"/>
<path d="M14.667 2.73877C15.4557 2.93153 16.1548 3.36938 16.654 3.98329C17.1532 4.5972 17.4242 5.35225 17.4242 6.12939C17.4242 6.90654 17.1532 7.66159 16.654 8.2755C16.1548 8.88941 15.4557 9.32726 14.667 9.52002" stroke="#C3937C" stroke-linecap="round" stroke-linejoin="round"/>
</svg>
