<svg width="101" height="31" viewBox="0 0 101 31" fill="none" xmlns="http://www.w3.org/2000/svg">
<path d="M39 19.15C40.7606 19.15 42.15 17.4933 42.15 15.5C42.15 13.5067 40.7606 11.85 39 11.85C37.2394 11.85 35.85 13.5067 35.85 15.5C35.85 17.4933 37.2394 19.15 39 19.15Z" fill="#C3937C" stroke="#787878" stroke-width="0.3" stroke-linecap="round" stroke-linejoin="round"/>
<path d="M50.5 19.15C52.5158 19.15 54.15 17.5158 54.15 15.5C54.15 13.4842 52.5158 11.85 50.5 11.85C48.4842 11.85 46.85 13.4842 46.85 15.5C46.85 17.5158 48.4842 19.15 50.5 19.15Z" fill="#C3937C" stroke="#787878" stroke-width="0.3" stroke-linecap="round" stroke-linejoin="round"/>
<path d="M62 19.15C63.7606 19.15 65.15 17.4933 65.15 15.5C65.15 13.5067 63.7606 11.85 62 11.85C60.2394 11.85 58.85 13.5067 58.85 15.5C58.85 17.4933 60.2394 19.15 62 19.15Z" fill="#C3937C" stroke="#787878" stroke-width="0.3" stroke-linecap="round" stroke-linejoin="round"/>
</svg>
