<svg width="255" height="223" viewBox="0 0 255 223" fill="none" xmlns="http://www.w3.org/2000/svg">
<path d="M182.561 0.389736C179.785 0.8404 177.304 2.56112 176 4.97831C175.201 6.45321 174.486 7.19066 173.056 7.88714C172.004 8.37877 170.574 9.56688 169.817 10.5092C168.64 12.025 168.471 12.5577 168.219 16.0401C168.051 18.1705 168.009 24.7665 168.093 30.7071C168.219 40.253 168.345 41.7279 169.018 43.0799C171.037 47.1358 177.346 48.3649 180.795 45.4151L182.225 44.186H199.553H216.881L218.311 45.4151C221.76 48.3649 228.068 47.1358 230.087 43.0799C230.76 41.7279 230.886 40.253 231.012 30.7071C231.097 24.7665 231.054 18.1705 230.886 16.0401C230.634 12.5577 230.466 12.025 229.288 10.5092C228.531 9.56688 227.101 8.37877 226.05 7.88714C224.662 7.19066 223.862 6.45321 223.063 4.97831C221.633 2.39724 219.362 0.8404 216.166 0.348767C213.138 -0.142866 185.505 -0.101897 182.561 0.389736ZM218.058 6.08448C218.689 7.06775 218.521 9.19816 217.764 9.8127C217.217 10.2634 213.768 10.3863 199.469 10.3863C182.477 10.3863 181.804 10.3453 181.215 9.60785C180.332 8.37877 180.5 6.65806 181.594 5.87964C182.393 5.30606 184.622 5.26509 200.099 5.34703C215.156 5.46994 217.722 5.55188 218.058 6.08448ZM177.724 13.418L178.944 14.6061V27.3886V40.171L177.724 41.3592C176.42 42.5882 175.663 42.6292 174.233 41.4001C173.518 40.8266 173.476 39.6384 173.476 27.1428C173.476 13.5 173.476 13.4999 174.402 12.8854C175.747 11.9841 176.294 12.066 177.724 13.418ZM224.704 12.8854C225.629 13.4999 225.629 13.5 225.629 27.1428C225.629 39.6384 225.587 40.8266 224.914 41.4001C223.442 42.6292 222.685 42.5882 221.381 41.3182L220.119 40.1301L220.245 27.1428L220.372 14.1964L221.549 13.2132C222.937 12.066 223.442 12.025 224.704 12.8854ZM215.114 27.1837V38.4503H199.553H183.991V27.1837V15.9171H199.553H215.114V27.1837Z" fill="#C3937C"/>
<path d="M112.022 0.389736C109.246 0.8404 106.765 2.56112 105.461 4.97831C104.662 6.45321 103.947 7.19066 102.517 7.88714C101.465 8.37877 100.035 9.56688 99.2782 10.5092C98.1005 12.025 97.9323 12.5577 97.68 16.0401C97.5117 18.1705 97.4697 24.7665 97.5538 30.7071C97.68 40.253 97.8061 41.7279 98.4791 43.0799C100.498 47.1358 106.807 48.3649 110.255 45.4151L111.685 44.186H129.014H146.342L147.772 45.4151C151.22 48.3649 157.529 47.1358 159.548 43.0799C160.221 41.7279 160.347 40.253 160.473 30.7071C160.557 24.7665 160.515 18.1705 160.347 16.0401C160.095 12.5577 159.927 12.025 158.749 10.5092C157.992 9.56688 156.562 8.37877 155.51 7.88714C154.123 7.19066 153.323 6.45321 152.524 4.97831C151.094 2.39724 148.823 0.8404 145.627 0.348767C142.598 -0.142866 114.966 -0.101897 112.022 0.389736ZM147.519 6.08448C148.15 7.06775 147.982 9.19816 147.225 9.8127C146.678 10.2634 143.229 10.3863 128.929 10.3863C111.938 10.3863 111.265 10.3453 110.676 9.60785C109.793 8.37877 109.961 6.65806 111.055 5.87964C111.854 5.30606 114.083 5.26509 129.56 5.34703C144.617 5.46994 147.183 5.55188 147.519 6.08448ZM107.185 13.418L108.405 14.6061V27.3886V40.171L107.185 41.3592C105.881 42.5882 105.124 42.6292 103.694 41.4001C102.979 40.8266 102.937 39.6384 102.937 27.1428C102.937 13.5 102.937 13.4999 103.863 12.8854C105.208 11.9841 105.755 12.066 107.185 13.418ZM154.165 12.8854C155.09 13.4999 155.09 13.5 155.09 27.1428C155.09 39.6384 155.048 40.8266 154.375 41.4001C152.903 42.6292 152.146 42.5882 150.842 41.3182L149.58 40.1301L149.706 27.1428L149.833 14.1964L151.01 13.2132C152.398 12.066 152.903 12.025 154.165 12.8854ZM144.575 27.1837V38.4503H129.014H113.452V27.1837V15.9171H129.014H144.575V27.1837Z" fill="#C3937C"/>
<path d="M41.4868 0.38998C38.7109 0.840644 36.2294 2.56136 34.9256 4.97856C34.1265 6.45345 33.4115 7.1909 31.9815 7.88738C30.9301 8.37902 29.5001 9.56713 28.743 10.5094C27.5654 12.0253 27.3971 12.5579 27.1448 16.0403C26.9766 18.1707 26.9345 24.7668 27.0186 30.7074C27.1448 40.2532 27.271 41.7281 27.9439 43.0801C29.9627 47.1361 36.2715 48.3652 39.7203 45.4154L41.1503 44.1863H58.4784H75.8065L77.2365 45.4154C80.6853 48.3652 86.9941 47.1361 89.0129 43.0801C89.6859 41.7281 89.812 40.2532 89.9382 30.7074C90.0223 24.7668 89.9803 18.1707 89.812 16.0403C89.5597 12.5579 89.3915 12.0253 88.2138 10.5094C87.4568 9.56713 86.0268 8.37902 84.9753 7.88738C83.5874 7.1909 82.7883 6.45345 81.9891 4.97856C80.5592 2.39748 78.288 0.840644 75.0915 0.349011C72.0633 -0.142622 44.4309 -0.101653 41.4868 0.38998ZM76.9842 6.08473C77.6151 7.06799 77.4468 9.1984 76.6898 9.81295C76.143 10.2636 72.6942 10.3865 58.3943 10.3865C41.4026 10.3865 40.7297 10.3455 40.1409 9.6081C39.2577 8.37902 39.4259 6.6583 40.5194 5.87988C41.3185 5.30631 43.5476 5.26534 59.0252 5.34728C74.0821 5.47019 76.6477 5.55213 76.9842 6.08473ZM36.65 13.4183L37.8697 14.6064V27.3888V40.1713L36.65 41.3594C35.3462 42.5885 34.5892 42.6295 33.1592 41.4004C32.4442 40.8268 32.4021 39.6387 32.4021 27.143C32.4021 13.5002 32.4021 13.5002 33.3274 12.8857C34.6733 11.9843 35.22 12.0663 36.65 13.4183ZM83.6294 12.8857C84.5547 13.5002 84.5547 13.5002 84.5547 27.143C84.5547 39.6387 84.5127 40.8268 83.8397 41.4004C82.3677 42.6295 81.6106 42.5885 80.3068 41.3184L79.045 40.1303L79.1712 27.143L79.2974 14.1967L80.475 13.2134C81.863 12.0663 82.3677 12.0253 83.6294 12.8857ZM74.0401 27.184V38.4506H58.4784H42.9168V27.184V15.9174H58.4784H74.0401V27.184Z" fill="#C3937C"/>
<path d="M27.2428 175.886C24.8455 177.033 23.794 178.631 23.3314 181.704C22.9108 184.694 22.8688 204.483 23.3314 207.883C23.6679 210.71 25.2661 212.84 28.042 214.192C29.3878 214.889 30.1869 215.667 30.9861 217.101C32.416 219.682 34.6872 221.239 37.8837 221.731C41.1642 222.263 67.8293 222.263 71.1099 221.731C74.3064 221.239 76.5775 219.682 78.0075 217.101C78.8066 215.626 79.6057 214.889 80.9937 214.192C82.0451 213.701 83.4751 212.513 84.2322 211.57C85.4098 210.054 85.5781 209.522 85.8304 206.039C85.9986 203.909 86.0407 197.313 85.9566 191.372C85.7883 179.163 85.5781 178.303 82.634 176.378C79.5637 174.411 75.7784 174.616 73.0025 176.869L71.2361 178.303H54.4547H37.7154L36.2854 177.074C33.6357 174.821 30.3972 174.37 27.2428 175.886ZM33.2152 181.253C33.804 182.031 33.8881 184.08 33.8881 194.937V207.719L32.5843 208.784C31.1543 209.972 31.0281 210.013 29.514 209.44L28.4205 209.03V195.51C28.4205 186.702 28.5887 181.663 28.8831 181.13C29.8505 179.368 31.9113 179.409 33.2152 181.253ZM79.9422 180.884C80.489 181.622 80.5731 184.08 80.5731 195.387V209.03L79.4796 209.44C77.9655 210.013 77.8393 209.972 76.4093 208.784L75.1055 207.719V194.814V181.908L76.3252 180.761C77.671 179.409 78.9328 179.491 79.9422 180.884ZM66.1891 183.465L70.0584 183.752V194.937V206.162H54.4968H38.9351V194.937V183.67L40.1128 183.506C42.0475 183.219 62.1094 183.219 66.1891 183.465ZM72.7081 212.267C73.1287 212.554 73.4231 213.414 73.4231 214.11C73.4231 216.732 74.3064 216.609 55.0856 216.732C35.4443 216.855 35.5704 216.855 35.5704 214.192C35.5704 212.594 36.1172 212.062 37.8837 211.775C38.5987 211.693 46.5477 211.611 55.5903 211.652C68.8387 211.693 72.1614 211.816 72.7081 212.267Z" fill="#C3937C"/>
<path d="M97.7819 175.886C95.3846 177.033 94.3331 178.631 93.8705 181.704C93.4499 184.694 93.4078 204.483 93.8705 207.883C94.2069 210.71 95.8052 212.84 98.581 214.192C99.9269 214.889 100.726 215.667 101.525 217.101C102.955 219.682 105.226 221.239 108.423 221.731C111.703 222.263 138.368 222.263 141.649 221.731C144.845 221.239 147.117 219.682 148.547 217.101C149.346 215.626 150.145 214.889 151.533 214.192C152.584 213.701 154.014 212.513 154.771 211.57C155.949 210.054 156.117 209.522 156.369 206.039C156.538 203.909 156.58 197.313 156.496 191.372C156.327 179.163 156.117 178.303 153.173 176.378C150.103 174.411 146.317 174.616 143.542 176.869L141.775 178.303H124.994H108.254L106.824 177.074C104.175 174.821 100.936 174.37 97.7819 175.886ZM103.754 181.253C104.343 182.031 104.427 184.08 104.427 194.937V207.719L103.123 208.784C101.693 209.972 101.567 210.013 100.053 209.44L98.9595 209.03V195.51C98.9595 186.702 99.1278 181.663 99.4222 181.13C100.39 179.368 102.45 179.409 103.754 181.253ZM150.481 180.884C151.028 181.622 151.112 184.08 151.112 195.387V209.03L150.019 209.44C148.505 210.013 148.378 209.972 146.948 208.784L145.645 207.719V194.814V181.908L146.864 180.761C148.21 179.409 149.472 179.491 150.481 180.884ZM136.728 183.465L140.598 183.752V194.937V206.162H125.036H109.474V194.937V183.67L110.652 183.506C112.587 183.219 132.648 183.219 136.728 183.465ZM143.247 212.267C143.668 212.554 143.962 213.414 143.962 214.11C143.962 216.732 144.845 216.609 125.625 216.732C105.983 216.855 106.109 216.855 106.109 214.192C106.109 212.594 106.656 212.062 108.423 211.775C109.138 211.693 117.087 211.611 126.129 211.652C139.378 211.693 142.7 211.816 143.247 212.267Z" fill="#C3937C"/>
<path d="M168.315 175.886C165.918 177.033 164.866 178.631 164.404 181.704C163.983 184.694 163.941 204.483 164.404 207.883C164.74 210.71 166.338 212.84 169.114 214.192C170.46 214.889 171.259 215.667 172.058 217.101C173.488 219.682 175.759 221.239 178.956 221.731C182.236 222.263 208.902 222.263 212.182 221.731C215.379 221.239 217.65 219.682 219.08 217.101C219.879 215.626 220.678 214.889 222.066 214.192C223.117 213.701 224.547 212.513 225.304 211.57C226.482 210.054 226.65 209.522 226.903 206.039C227.071 203.909 227.113 197.313 227.029 191.372C226.861 179.163 226.65 178.303 223.706 176.378C220.636 174.411 216.851 174.616 214.075 176.869L212.308 178.303H195.527H178.788L177.358 177.074C174.708 174.821 171.47 174.37 168.315 175.886ZM174.287 181.253C174.876 182.031 174.96 184.08 174.96 194.937V207.719L173.657 208.784C172.227 209.972 172.1 210.013 170.586 209.44L169.493 209.03V195.51C169.493 186.702 169.661 181.663 169.955 181.13C170.923 179.368 172.984 179.409 174.287 181.253ZM221.014 180.884C221.561 181.622 221.645 184.08 221.645 195.387V209.03L220.552 209.44C219.038 210.013 218.912 209.972 217.482 208.784L216.178 207.719V194.814V181.908L217.397 180.761C218.743 179.409 220.005 179.491 221.014 180.884ZM207.261 183.465L211.131 183.752V194.937V206.162H195.569H180.007V194.937V183.67L181.185 183.506C183.12 183.219 203.182 183.219 207.261 183.465ZM213.78 212.267C214.201 212.554 214.495 213.414 214.495 214.11C214.495 216.732 215.379 216.609 196.158 216.732C176.517 216.855 176.643 216.855 176.643 214.192C176.643 212.594 177.189 212.062 178.956 211.775C179.671 211.693 187.62 211.611 196.663 211.652C209.911 211.693 213.234 211.816 213.78 212.267Z" fill="#C3937C"/>
<path d="M10 55.4999H244.331C248.473 55.4999 251.831 58.8577 251.831 62.9999V159C251.831 163.142 248.473 166.5 244.331 166.5H10C5.85787 166.5 2.5 163.142 2.5 159V62.9999C2.5 58.8577 5.85786 55.4999 10 55.4999Z" stroke="#C3937C" stroke-width="5"/>
</svg>
