<svg width="50" height="43" viewBox="0 0 50 43" fill="none" xmlns="http://www.w3.org/2000/svg">
<path d="M43.75 4V14.5H31.25" stroke="#C3937C" stroke-width="3" stroke-linecap="round" stroke-linejoin="round"/>
<path d="M6.25 21.5001C6.2533 18.4609 7.30333 15.4874 9.27345 12.9383C11.2436 10.3891 14.0496 8.37325 17.3531 7.13377C20.6567 5.89428 24.3166 5.48414 27.8914 5.95281C31.4662 6.42147 34.8032 7.74893 37.5 9.77506L43.75 14.5001" stroke="#C3937C" stroke-width="3" stroke-linecap="round" stroke-linejoin="round"/>
<path d="M6.25 39V28.5H18.75" stroke="#C3937C" stroke-width="3" stroke-linecap="round" stroke-linejoin="round"/>
<path d="M43.75 21.5C43.7467 24.5392 42.6967 27.5127 40.7266 30.0618C38.7564 32.6109 35.9504 34.6268 32.6469 35.8663C29.3433 37.1058 25.6834 37.5159 22.1086 37.0473C18.5338 36.5786 15.1968 35.2511 12.5 33.225L6.25 28.5" stroke="#C3937C" stroke-width="3" stroke-linecap="round" stroke-linejoin="round"/>
</svg>
