<svg width="272" height="263" viewBox="0 0 272 263" fill="none" xmlns="http://www.w3.org/2000/svg">
<path d="M118.156 0.389858C115.362 0.840522 112.864 2.56124 111.552 4.97843C110.748 6.45333 110.028 7.19078 108.589 7.88726C107.53 8.37889 106.091 9.56701 105.329 10.5093C104.143 12.0252 103.974 12.5578 103.72 16.0402C103.551 18.1706 103.508 24.7667 103.593 30.7072C103.72 40.2531 103.847 41.728 104.524 43.08C106.557 47.136 112.907 48.3651 116.378 45.4153L117.818 44.1862H135.259H152.701L154.141 45.4153C157.612 48.3651 163.962 47.136 165.994 43.08C166.672 41.728 166.799 40.2531 166.926 30.7072C167.01 24.7667 166.968 18.1706 166.799 16.0402C166.545 12.5578 166.375 12.0252 165.19 10.5093C164.428 9.56701 162.989 8.37889 161.93 7.88726C160.533 7.19078 159.729 6.45333 158.924 4.97843C157.485 2.39736 155.199 0.840522 151.982 0.348889C148.933 -0.142744 121.12 -0.101775 118.156 0.389858ZM153.887 6.08461C154.522 7.06787 154.352 9.19828 153.59 9.81282C153.04 10.2635 149.569 10.3864 135.175 10.3864C118.072 10.3864 117.394 10.3454 116.802 9.60798C115.912 8.37889 116.082 6.65818 117.183 5.87976C117.987 5.30619 120.231 5.26522 135.81 5.34716C150.966 5.47006 153.548 5.552 153.887 6.08461ZM113.288 13.4181L114.515 14.6062V27.3887V40.1712L113.288 41.3593C111.975 42.5884 111.213 42.6293 109.774 41.4002C109.054 40.8267 109.012 39.6386 109.012 27.1429C109.012 13.5001 109.012 13.5001 109.943 12.8855C111.298 11.9842 111.848 12.0661 113.288 13.4181ZM160.576 12.8855C161.507 13.5001 161.507 13.5001 161.507 27.1429C161.507 39.6386 161.465 40.8267 160.787 41.4002C159.305 42.6293 158.543 42.5884 157.231 41.3183L155.961 40.1302L156.088 27.1429L156.215 14.1966L157.4 13.2133C158.797 12.0661 159.305 12.0252 160.576 12.8855ZM150.923 27.1839V38.4505H135.259H119.596V27.1839V15.9173H135.259H150.923V27.1839Z" fill="#C3937C"/>
<path d="M54.9501 25.3403C52.9604 25.791 50.8013 27.7165 38.0162 40.2122C28.2793 49.7581 26.4165 51.7656 26.0355 53.1995C25.5275 54.9612 25.7392 56.4771 26.6706 58.6484C27.1362 59.7136 27.0939 60.2053 26.3742 62.1718C24.9772 66.0229 25.4005 67.211 30.015 72.1274C36.3228 78.8464 46.3985 88.2284 48.3459 89.2116C51.267 90.6046 54.6961 90.2768 56.8551 88.3103C58.2522 87.0812 59.4799 84.6231 59.4799 83.1482C59.4799 82.3697 60.0302 81.2636 61.0886 79.9525C63.7133 76.7569 82.0019 59.0991 83.3989 58.4436C84.1186 58.0749 85.5157 57.7061 86.5317 57.5832C91.3155 57.0097 94.2366 51.7246 92.2892 47.218C91.6119 45.6202 81.4939 35.4597 74.3817 29.1914C69.3015 24.7257 68.0738 24.3161 64.0944 25.668C62.1046 26.3236 61.5119 26.3645 60.4959 25.9548C58.6755 25.2174 56.4741 24.9716 54.9501 25.3403ZM58.9719 30.7483C60.5382 32.2641 59.1412 34.2716 50.0393 43.2849C40.006 53.1995 34.7565 57.7061 33.1901 57.7061C31.7084 57.7061 30.8617 56.3132 31.285 54.5925C31.6237 53.4043 48.9809 36.0743 53.68 32.2641C56.1778 30.2156 57.9135 29.724 58.9719 30.7483ZM69.4709 31.4447C71.2912 32.7558 85.4733 46.5625 86.9127 48.447C88.0558 49.9219 88.0981 51.233 87.0397 52.1343C85.304 53.6502 83.9916 52.7898 75.44 44.6369C66.1688 35.8285 64.9834 34.4355 64.9834 32.3051C64.9834 31.4857 65.1104 30.6663 65.2797 30.5434C65.9147 29.8879 67.9468 30.3386 69.4709 31.4447ZM78.5305 55.166C78.5305 55.3299 73.662 60.1643 67.7351 65.9L56.9398 76.3472L48.4305 68.1533L39.9213 59.9595L51.0976 49.3893L62.2316 38.7783L70.4022 46.8083C74.8474 51.233 78.5305 55.0022 78.5305 55.166ZM36.9155 64.589C38.0162 65.4494 42.419 69.6282 46.6948 73.8891C54.7807 81.9191 55.2888 82.6975 53.68 84.4182C53.299 84.8279 52.41 85.1557 51.7326 85.1557C50.6743 85.1557 49.1926 83.9675 41.9957 77.0437C32.7667 68.2353 31.1157 66.3507 31.1157 64.6709C31.1157 63.237 31.3697 63.0322 33.2748 63.0322C34.4601 63.0322 35.3491 63.4009 36.9155 64.589Z" fill="#C3937C"/>
<path d="M201.429 25.2993C200.583 25.5041 198.508 27.02 195.926 29.3552C188.771 35.7465 178.865 45.743 178.23 47.2179C176.283 51.7245 179.204 57.0096 183.987 57.5832C185.003 57.7061 186.443 58.0748 187.12 58.4435C188.475 59.0581 206.763 76.7159 209.431 79.9525C210.489 81.2635 211.039 82.3697 211.039 83.1481C211.039 84.623 212.267 87.0811 213.664 88.3102C215.654 90.1129 219.083 90.6045 221.877 89.4574C223.528 88.8019 234.027 79.0102 240.504 72.1273C245.119 67.211 245.542 66.0229 244.145 62.1717C243.425 60.2052 243.383 59.7136 243.849 58.6484C244.78 56.477 244.992 54.9611 244.484 53.1994C244.103 51.7655 242.282 49.8399 233.138 40.8267C227.169 34.968 220.988 29.0684 219.464 27.7984C216.077 24.9715 214.341 24.5208 210.912 25.7089C208.965 26.3645 208.415 26.4054 207.356 25.9548C205.536 25.2173 202.996 24.9305 201.429 25.2993ZM205.028 30.7482C205.705 31.4037 205.663 33.3293 204.943 34.6813C203.969 36.4839 187.078 52.3391 185.808 52.6259C183.818 53.1175 182.336 51.6426 182.844 49.6761C183.183 48.447 197.916 33.698 201.048 31.4447C202.784 30.1746 204.181 29.9288 205.028 30.7482ZM216.839 32.2641C221.538 36.0742 238.895 53.4043 239.234 54.5924C239.615 56.1902 238.811 57.7061 237.541 57.7061C236.99 57.7061 235.509 56.9276 234.239 55.9853C231.106 53.5682 220.184 43.2029 215.23 37.8769C210.955 33.2883 210.362 32.1821 211.717 30.9121C212.86 29.8059 214.257 30.1746 216.839 32.2641ZM225.094 54.7153L230.513 59.9594L222.046 68.1533L213.579 76.3472L202.784 65.8999C196.857 60.1642 191.989 55.3298 191.989 55.166C191.989 55.0021 195.629 51.2739 200.075 46.8492L208.161 38.8601L213.96 44.1452C217.135 47.054 222.131 51.8065 225.094 54.7153ZM239.107 63.8924C240.123 65.4493 238.98 66.8832 229.497 76.0194C221.623 83.6807 219.887 85.1556 218.871 85.1556C217.305 85.1556 216.119 84.0904 216.119 82.6564C216.119 81.7551 217.728 79.9525 224.713 73.0286C229.413 68.3581 233.858 64.1792 234.535 63.7695C236.017 62.8682 238.472 62.9502 239.107 63.8924Z" fill="#C3937C"/>
<path d="M126.792 49.799C100.036 52.4211 76.0326 67.4569 62.2315 90.2359C58.2097 96.8729 54.4842 106.255 52.4098 114.858C51.3091 119.611 51.2668 142.308 52.4098 147.224C60.0724 180.655 86.6585 205.565 121.077 211.587C126.368 212.489 142.921 212.652 148.086 211.792C175.773 207.367 199.396 190.365 211.292 166.357C213.451 161.932 216.414 153.82 217.854 148.249C218.785 144.561 218.87 143.66 218.87 131.041C218.87 116.006 218.743 115.35 215.017 104.739C210.826 92.8989 204.73 83.2301 195.84 74.3807C179.541 58.1158 157.908 49.3484 134.708 49.5942C131.152 49.5942 127.596 49.7171 126.792 49.799ZM147.324 55.248C165.951 57.7881 184.24 67.9075 196.39 82.4107C206.508 94.5377 212.35 107.976 214.043 123.052C214.636 128.542 214.34 138.785 213.366 143.947C207.863 174.059 184.917 197.944 154.098 205.565C149.271 206.794 145.673 207.204 138.434 207.49C124.844 208.064 113.245 205.729 101.179 200.075C80.1813 190.242 65.2796 173.158 58.9294 151.526C54.8652 137.842 55.2463 121.455 59.9454 107.197C61.4694 102.568 65.7452 93.8412 68.624 89.5804C80.5624 71.5948 101.857 58.1568 122.982 55.2889C124.717 55.0431 126.622 54.7563 127.215 54.6744C129.078 54.3466 143.81 54.7563 147.324 55.248Z" fill="#C3937C"/>
<path d="M130.178 109.655C126.453 110.843 124.463 112.032 121.499 114.695C116.927 118.873 114.938 123.216 114.938 129.198C114.938 131.041 115.234 133.54 115.615 134.77C117.435 140.751 122.431 145.872 128.866 148.289C132.168 149.56 139.238 149.846 142.709 148.863C149.991 146.856 155.621 141.693 157.695 135.179C159.304 130.14 158.542 123.257 155.875 119.078C153.589 115.391 148.975 111.745 144.614 110.065C141.27 108.795 133.522 108.59 130.178 109.655ZM144.572 113.67C158.712 120.102 158.796 138.252 144.741 144.643C135.724 148.74 124.251 144.971 119.933 136.449C118.621 133.868 118.536 133.499 118.536 129.198C118.536 125.06 118.621 124.486 119.764 122.233C121.245 119.365 124.971 115.555 127.638 114.244C131.067 112.523 132.718 112.195 137.375 112.318C141.312 112.4 142.116 112.564 144.572 113.67Z" fill="#C3937C"/>
<path d="M15.2405 100.683C13.6317 100.806 11.8537 101.175 11.388 101.421C10.118 102.117 8.33992 104.247 7.62023 105.927C7.23922 106.829 6.51953 107.525 5.58817 107.894C3.64078 108.672 1.60872 110.352 0.719689 111.95C0.0846692 113.097 0 114.981 0 131.041C0 147.101 0.0846692 148.986 0.719689 150.133C1.60872 151.69 3.64078 153.411 5.5035 154.148C6.4772 154.558 7.19689 155.336 7.91657 156.688C8.46692 157.754 9.60996 159.146 10.4567 159.843C12.6157 161.523 16.3835 161.85 30.6079 161.687C43.393 161.523 44.155 161.4 46.4411 159.065C49.2352 156.156 49.1928 151.362 46.3987 148.904C45.5097 148.126 45.5097 147.88 45.5097 131.041C45.5097 114.203 45.5097 113.957 46.3987 113.179C47.7958 111.991 48.4731 110.352 48.4731 108.344C48.4731 106.05 47.8805 104.534 46.4411 103.018C44.1127 100.642 43.4777 100.56 30.2693 100.478C23.6227 100.437 16.8915 100.519 15.2405 100.683ZM42.631 106.337C43.901 107.771 43.8587 108.508 42.5886 109.778L41.3609 110.966H28.4912C14.7324 110.966 14.1398 110.884 12.9544 108.877C12.404 107.894 12.404 107.689 13.0391 106.706L13.7588 105.64H27.8985C40.8106 105.64 42.0383 105.681 42.631 106.337ZM9.99097 113.302C10.4567 113.834 10.5837 117.153 10.5837 131.041C10.5837 149.764 10.626 149.478 8.08591 149.478C5.3765 149.478 5.5035 150.42 5.5035 131.041C5.5035 111.663 5.3765 112.605 8.08591 112.605C8.8056 112.605 9.69463 112.892 9.99097 113.302ZM39.5829 131.041V146.2H27.9408H16.2988V131.041V115.883H27.9408H39.5829V131.041ZM42.5463 152.305C43.4353 153.124 43.6893 153.739 43.52 154.353C42.9696 156.402 42.5463 156.442 27.4328 156.442H13.3354L12.9121 155.377C12.3194 153.902 12.3617 153.779 13.5894 152.387L14.6901 151.116H28.0255H41.3609L42.5463 152.305Z" fill="#C3937C"/>
<path d="M229.876 100.519C229.664 100.601 228.733 100.765 227.844 100.929C225.939 101.216 223.399 103.264 222.637 105.108C221.409 107.894 222.086 111.376 224.118 113.179C225.007 113.957 225.007 114.203 225.007 131.041C225.007 147.88 225.007 148.126 224.118 148.904C222.721 150.092 222.044 151.731 222.044 153.739C222.044 156.033 222.637 157.549 224.076 159.065C226.362 161.4 227.124 161.523 239.909 161.687C254.134 161.85 257.901 161.523 260.06 159.843C260.907 159.146 262.05 157.754 262.601 156.688C263.32 155.336 264.04 154.558 265.014 154.148C266.876 153.411 268.908 151.69 269.797 150.133C270.432 148.986 270.517 147.101 270.517 131.041C270.517 114.981 270.432 113.097 269.797 111.95C268.908 110.393 266.876 108.672 265.014 107.935C264.04 107.525 263.32 106.747 262.601 105.395C261.076 102.445 259.129 101.134 255.658 100.683C252.948 100.355 230.807 100.191 229.876 100.519ZM257.605 106.706C258.198 108.181 258.155 108.303 256.928 109.696L255.827 110.966H242.492H229.156L227.928 109.778C226.447 108.344 226.447 108.14 227.59 106.706L228.437 105.64H242.83H257.182L257.605 106.706ZM264.379 113.015C264.929 113.343 265.014 115.801 265.014 131.041C265.014 150.42 265.141 149.478 262.431 149.478C259.891 149.478 259.933 149.764 259.933 131.041C259.933 117.153 260.06 113.834 260.526 113.302C261.161 112.564 263.363 112.4 264.379 113.015ZM254.218 131.041V146.2H242.619H231.061L230.765 142.431C230.342 136.367 230.469 117.563 230.934 116.661C231.358 115.924 231.95 115.883 242.788 115.883H254.218V131.041ZM256.928 152.387C258.155 153.779 258.198 153.902 257.605 155.377L257.182 156.442H243H228.775L227.759 155.418C226.404 154.148 226.447 153.779 227.928 152.305L229.156 151.116H242.492H255.827L256.928 152.387Z" fill="#C3937C"/>
<path d="M48.2612 172.912C46.3562 173.855 36.1112 183.441 30.015 189.955C25.4005 194.872 24.9772 196.06 26.3742 199.911C27.0939 201.878 27.1362 202.369 26.6706 203.434C25.7392 205.606 25.5275 207.122 26.0355 208.883C26.4165 210.276 28.1946 212.243 36.9579 220.846C42.7154 226.5 48.8539 232.359 50.6319 233.875C54.4421 237.152 56.0508 237.603 59.5646 236.415C61.766 235.677 61.8506 235.677 64.1367 236.456C68.0738 237.767 69.3015 237.357 74.3817 232.891C81.4939 226.623 91.6119 216.463 92.2892 214.865C94.2366 210.358 91.3155 205.073 86.5317 204.5C85.5157 204.377 84.1186 204.008 83.3989 203.639C82.0019 202.984 63.7133 185.326 61.0886 182.13C60.0302 180.819 59.4799 179.713 59.4799 178.935C59.4799 177.46 58.2522 175.002 56.8551 173.773C54.6961 171.847 51.0976 171.478 48.2612 172.912ZM53.4684 177.583C55.1194 178.689 54.6537 179.918 51.0553 183.81C45.3401 189.915 36.0688 198.559 34.8835 198.846C33.3171 199.215 31.92 198.969 31.412 198.19C30.396 196.633 31.539 195.2 41.022 186.022C50.9283 176.477 51.3516 176.149 53.4684 177.583ZM67.9045 196.347L78.6575 206.794L74.805 210.809C72.6883 213.021 69.0052 216.709 66.5921 219.003L62.2316 223.223L51.0976 212.694L39.9213 202.205L48.3459 194.052C52.9604 189.587 56.8128 185.94 56.9398 185.94C57.0668 185.94 62.02 190.611 67.9045 196.347ZM39.2439 208.597C45.0861 213.759 58.2522 226.869 59.0142 228.262C60.1996 230.433 58.6755 232.236 56.1778 231.621C54.5691 231.253 31.7084 209.047 31.285 207.531C30.8617 205.77 31.7084 204.377 33.1901 204.377C34.2061 204.377 35.4338 205.237 39.2439 208.597ZM87.4207 210.604C87.9711 211.628 87.9711 211.874 87.2514 213.144C86.8281 213.923 82.5523 218.347 77.7261 222.936C69.0052 231.335 67.4388 232.482 65.8724 231.539C64.8564 230.925 64.814 228.713 65.7877 227.197C66.2534 226.459 70.5716 222.116 75.3554 217.528C83.3989 209.867 84.1186 209.252 85.3887 209.375C86.3624 209.457 86.9551 209.826 87.4207 210.604Z" fill="#C3937C"/>
<path d="M215.696 172.462C213.368 173.363 211.039 176.599 211.039 178.894C211.039 179.549 210.489 180.778 209.812 181.68C208.372 183.564 188.433 202.738 186.909 203.721C186.358 204.09 185.342 204.377 184.665 204.377C182.125 204.377 178.357 207.163 177.764 209.539C177.299 211.382 177.849 214.578 178.907 216.012C180.559 218.265 192.37 230.105 196.138 233.301C199.101 235.8 200.032 236.374 202.022 236.784C204.054 237.234 204.647 237.234 206.425 236.62C208.33 235.923 208.626 235.923 210.87 236.579C213.58 237.316 216.162 237.111 217.94 236.005C218.914 235.35 226.026 228.672 230.344 224.329C231.064 223.591 234.239 220.601 237.456 217.692C243.044 212.571 243.341 212.202 245.331 208.269C246.474 206.015 247.49 203.68 247.659 203.107C248.04 201.55 246.05 196.429 243.976 193.766C240.885 189.792 223.74 173.363 221.877 172.666C220.057 171.929 217.305 171.847 215.696 172.462ZM229.497 186.022C238.938 195.159 240.123 196.633 239.107 198.19C238.853 198.559 238.007 198.887 237.202 198.969C235.213 199.133 232.884 197.289 223.444 187.784C215.781 180.123 215.273 179.344 216.839 177.665C217.22 177.255 218.109 176.927 218.829 176.927C219.93 176.927 221.369 178.156 229.497 186.022ZM230.429 201.919C230.556 202.246 214.13 218.183 211.166 220.683L208.584 222.813L206.086 220.723C204.732 219.576 202.911 218.142 202.065 217.61C201.175 217.036 200.244 216.053 199.948 215.397C199.651 214.742 199.186 214.209 198.932 214.209C198.466 214.209 197.408 213.144 193.725 208.883L191.862 206.753L202.742 196.265L213.58 185.777L222.004 193.725C226.619 198.108 230.429 201.796 230.429 201.919ZM238.557 205.196C239.023 205.647 239.404 206.384 239.404 206.876C239.404 207.982 235.636 212.038 225.433 221.994C216.501 230.679 215.95 231.007 213.072 229.901C210.32 228.835 210.743 228.139 218.152 220.887C221.792 217.323 225.518 213.472 226.365 212.407C227.254 211.301 229.116 209.58 230.556 208.515C231.953 207.49 233.815 206.138 234.62 205.483C236.44 204.172 237.414 204.09 238.557 205.196ZM192.497 214.906C195.841 218.02 200.117 221.994 202.065 223.714C205.959 227.197 206.34 228.262 204.435 229.737C203.8 230.228 202.996 230.597 202.573 230.597C201.302 230.597 198.339 228.18 190.422 220.601C183.945 214.373 182.675 212.98 182.675 211.956C182.675 210.44 183.776 209.293 185.258 209.293C186.147 209.293 187.671 210.481 192.497 214.906Z" fill="#C3937C"/>
<path d="M271.366 213.39C271.239 213.595 271.324 213.8 271.536 213.8C271.79 213.8 272.001 213.595 272.001 213.39C272.001 213.144 271.917 212.98 271.832 212.98C271.705 212.98 271.493 213.144 271.366 213.39Z" fill="#C3937C"/>
<path d="M107.827 215.889C105.414 217.036 104.356 218.634 103.89 221.707C103.467 224.697 103.425 244.486 103.89 247.886C104.229 250.713 105.838 252.843 108.632 254.195C109.986 254.892 110.791 255.67 111.595 257.104C113.034 259.685 115.321 261.242 118.538 261.734C121.84 262.266 148.68 262.266 151.982 261.734C155.2 261.242 157.486 259.685 158.925 257.104C159.73 255.629 160.534 254.892 161.931 254.195C162.989 253.704 164.429 252.516 165.191 251.573C166.376 250.058 166.545 249.525 166.799 246.043C166.969 243.912 167.011 237.316 166.926 231.376C166.757 219.167 166.545 218.306 163.582 216.381C160.492 214.414 156.681 214.619 153.887 216.872L152.109 218.306H135.218H118.369L116.929 217.077C114.262 214.824 111.002 214.373 107.827 215.889ZM113.839 221.256C114.432 222.034 114.516 224.083 114.516 234.94V247.722L113.204 248.788C111.764 249.976 111.637 250.017 110.113 249.443L109.013 249.033V235.513C109.013 226.705 109.182 221.666 109.478 221.133C110.452 219.371 112.526 219.412 113.839 221.256ZM160.873 220.887C161.423 221.625 161.508 224.083 161.508 235.391V249.033L160.407 249.443C158.883 250.017 158.756 249.976 157.317 248.788L156.004 247.722V234.817V221.912L157.232 220.764C158.587 219.412 159.857 219.494 160.873 220.887ZM147.029 223.468L150.924 223.755V234.94V246.165H135.26H119.596V234.94V223.673L120.782 223.509C122.729 223.223 142.923 223.223 147.029 223.468ZM153.591 252.27C154.014 252.557 154.311 253.417 154.311 254.114C154.311 256.736 155.2 256.613 135.853 256.736C116.083 256.858 116.21 256.858 116.21 254.195C116.21 252.598 116.76 252.065 118.538 251.778C119.258 251.696 127.259 251.614 136.361 251.655C149.696 251.696 153.041 251.819 153.591 252.27Z" fill="#C3937C"/>
</svg>
