<svg width="24" height="24" viewBox="0 0 24 24" fill="none" xmlns="http://www.w3.org/2000/svg">
<rect width="24" height="24" rx="12" fill="#C3937C"/>
<path fill-rule="evenodd" clip-rule="evenodd" d="M4.77332 15.1253C4.80665 15.1253 4.83465 15.098 4.83954 15.0599L5.01775 13.6442L4.83954 12.1968C4.8342 12.1583 4.80665 12.1319 4.77332 12.1319C4.7391 12.1319 4.71109 12.1592 4.70709 12.1972L4.54931 13.6442L4.70709 15.0595C4.71154 15.098 4.7391 15.1253 4.77332 15.1253ZM4.18177 14.5871C4.21421 14.5871 4.24089 14.5612 4.24577 14.5244L4.38444 13.6442L4.24577 12.7488C4.24089 12.7116 4.21466 12.6861 4.18177 12.6861C4.14844 12.6861 4.12178 12.7121 4.11733 12.7492L4 13.6447L4.11733 14.5244C4.12178 14.5616 4.14844 14.5871 4.18177 14.5871ZM5.48174 11.9272C5.47685 11.8816 5.44353 11.8485 5.40175 11.8485C5.35953 11.8485 5.32529 11.8816 5.32129 11.9272C5.32129 11.9277 5.17196 13.6447 5.17196 13.6447L5.32129 15.299C5.32529 15.3455 5.35953 15.3782 5.40175 15.3782C5.44353 15.3782 5.47685 15.3455 5.48174 15.2994L5.65196 13.6447L5.48174 11.9272ZM6.03551 15.4445C6.08439 15.4445 6.12484 15.4051 6.12928 15.3523L6.28927 13.6456L6.12928 11.8802C6.12484 11.8279 6.08439 11.7876 6.03551 11.7876C5.98573 11.7876 5.94573 11.8274 5.94173 11.8807L5.80084 13.6456L5.94173 15.3523C5.94573 15.4051 5.98573 15.4445 6.03551 15.4445ZM6.67415 15.4727C6.73148 15.4727 6.7777 15.427 6.78215 15.3661L6.7817 15.3666L6.93325 13.6456L6.7817 12.0078C6.7777 11.9478 6.73148 11.9017 6.67415 11.9017C6.61682 11.9017 6.57104 11.9478 6.56704 12.0087L6.43416 13.6456L6.56704 15.3666C6.5706 15.427 6.61682 15.4727 6.67415 15.4727ZM7.58079 13.646L7.43991 10.9826C7.43591 10.915 7.38302 10.8617 7.31903 10.8617C7.25414 10.8617 7.20081 10.915 7.19814 10.9826L7.07325 13.646L7.19814 15.367C7.20125 15.4342 7.25458 15.4875 7.31903 15.4875C7.38347 15.4875 7.43636 15.4346 7.43991 15.3666V15.3675L7.58079 13.646ZM7.96745 15.4902C8.03944 15.4902 8.099 15.4311 8.10256 15.3558V15.3572L8.23456 13.6465L8.10256 10.3737C8.099 10.2985 8.03944 10.2394 7.96745 10.2394C7.895 10.2394 7.83589 10.2985 7.83278 10.3737C7.83278 10.3741 7.71546 13.6465 7.71546 13.6465L7.83278 15.3563C7.83589 15.4311 7.895 15.4902 7.96745 15.4902ZM8.62166 9.95283C8.54077 9.95283 8.47588 10.0182 8.47321 10.1015L8.36433 13.6465L8.47321 15.3393C8.47588 15.4217 8.54077 15.487 8.62166 15.487C8.70165 15.487 8.76653 15.4217 8.77009 15.3384V15.3397L8.89231 13.6465L8.77009 10.1015C8.76698 10.0182 8.70165 9.95283 8.62166 9.95283ZM9.28118 15.4902C9.36918 15.4902 9.44074 15.4194 9.44341 15.3281V15.329L9.55674 13.6469L9.44341 9.98193C9.44074 9.8906 9.36918 9.81941 9.28118 9.81941C9.19274 9.81941 9.12164 9.8906 9.11942 9.98193L9.01809 13.6469L9.11942 15.329C9.1212 15.4194 9.19274 15.4902 9.28118 15.4902ZM9.94605 15.4884C10.0416 15.4884 10.1194 15.4114 10.1216 15.312V15.3138L10.226 13.6465L10.1216 10.0751C10.1194 9.97656 10.0416 9.89911 9.94605 9.89911C9.84961 9.89911 9.77184 9.97656 9.77006 10.0755L9.67762 13.6465L9.77006 15.3129C9.77184 15.4114 9.84961 15.4884 9.94605 15.4884ZM10.9003 13.6474L10.8047 10.2062C10.8025 10.0997 10.7194 10.0164 10.6154 10.0164C10.5114 10.0164 10.4278 10.1001 10.4256 10.2062L10.3416 13.6474L10.4256 15.303C10.4278 15.4082 10.5109 15.4919 10.6154 15.4919C10.7189 15.4919 10.8025 15.4082 10.8047 15.3021V15.303L10.9003 13.6474ZM11.2909 15.4951C11.4002 15.4951 11.4918 15.4037 11.4931 15.2914V15.2927L11.5789 13.6478L11.4931 9.55302C11.4918 9.44065 11.4002 9.34886 11.2909 9.34886C11.1802 9.34886 11.0891 9.44065 11.0878 9.55302L11.0109 13.6465C11.0109 13.6496 11.0878 15.2927 11.0878 15.2927C11.0891 15.4037 11.1802 15.4951 11.2909 15.4951ZM11.9629 8.96472C11.8442 8.96472 11.7473 9.06233 11.746 9.18232L11.6571 13.6483L11.746 15.269C11.7473 15.3876 11.8447 15.4848 11.9629 15.4848C12.0802 15.4848 12.1776 15.3872 12.1789 15.2676V15.269L12.2753 13.6483L12.1789 9.18187C12.1776 9.06188 12.0802 8.96472 11.9629 8.96472ZM12.5775 15.4964C12.5824 15.4969 17.9969 15.5 18.0321 15.5C19.1187 15.5 20 14.6122 20 13.5171C20 12.422 19.1191 11.5346 18.0321 11.5346C17.7627 11.5346 17.5054 11.5897 17.2712 11.6882C17.1147 9.90134 15.6272 8.5 13.8131 8.5C13.3691 8.5 12.9366 8.5882 12.5544 8.73684C12.4056 8.79505 12.3664 8.85459 12.3651 8.9701V15.2623C12.3664 15.3836 12.4593 15.4843 12.5775 15.4964Z" fill="#FBF8F1"/>
</svg>
