<svg width="87" height="25" viewBox="0 0 87 25" fill="none" xmlns="http://www.w3.org/2000/svg">
<path d="M7.5 5L10.0494 9.60228L15 10.7295L11.625 14.7011L12.1353 20L7.5 17.8523L2.86474 20L3.375 14.7011L0 10.7295L4.95061 9.60228L7.5 5Z" fill="#FFCB45"/>
<path d="M25.5 5L28.0494 9.60228L33 10.7295L29.625 14.7011L30.1353 20L25.5 17.8523L20.8647 20L21.375 14.7011L18 10.7295L22.9506 9.60228L25.5 5Z" fill="#FFCB45"/>
<path d="M43.5 5L46.0494 9.60228L51 10.7295L47.625 14.7011L48.1353 20L43.5 17.8523L38.8647 20L39.375 14.7011L36 10.7295L40.9506 9.60228L43.5 5Z" fill="#FFCB45"/>
<path d="M61.5 5L64.0494 9.60228L69 10.7295L65.625 14.7011L66.1353 20L61.5 17.8523L56.8647 20L57.375 14.7011L54 10.7295L58.9506 9.60228L61.5 5Z" fill="#FFCB45"/>
<path d="M79.5 5L82.0494 9.60228L87 10.7295L83.625 14.7011L84.1353 20L79.5 17.8523L74.8647 20L75.375 14.7011L72 10.7295L76.9506 9.60228L79.5 5Z" fill="#FFCB45"/>
</svg>
