<svg width="222" height="223" viewBox="0 0 222 223" fill="none" xmlns="http://www.w3.org/2000/svg">
<path d="M110.875 216.125C168.658 216.125 215.5 169.283 215.5 111.5C215.5 53.7172 168.658 6.875 110.875 6.875C53.0922 6.875 6.25 53.7172 6.25 111.5C6.25 169.283 53.0922 216.125 110.875 216.125Z" stroke="#C3937C" stroke-width="12" stroke-linecap="round" stroke-linejoin="round"/>
<path d="M80.8125 105C86.0911 104.483 89.2213 101.739 93.6115 98.6572C102.836 89.7299 110.754 79.4547 117.116 68.1566C117.915 66.5977 119.109 65.2939 120.569 64.3854C122.029 63.4769 123.7 62.9979 125.403 63C126.738 62.9993 128.058 63.2932 129.275 63.8621C130.492 64.4311 131.579 65.262 132.462 66.2998C133.345 67.3376 134.006 68.5584 134.399 69.8811C134.792 71.2038 134.909 72.5982 134.742 73.9714L126.498 98.6572M80.8125 105L63 105V150C63 151.657 64.3431 153 66 153H77.8125C79.4694 153 80.8125 151.657 80.8125 150V105ZM119.406 99H148.589C150.29 99.0007 150.797 99.0833 152.305 99.8976C153.813 100.712 155.11 101.891 156.086 103.335C157.061 104.779 157.687 106.445 157.909 108.193C158.132 109.941 157.944 111.718 157.364 113.375L144.908 151.775C143.384 156.115 142.373 159 134.965 159C121.291 159 106.517 153.344 95.3577 150.152" stroke="#C3937C" stroke-width="5" stroke-linecap="round" stroke-linejoin="round"/>
</svg>
