<svg width="261" height="115" viewBox="0 0 261 115" fill="none" xmlns="http://www.w3.org/2000/svg">
<path d="M83.4814 40.8027C82.6279 41.8418 81.8548 42.9674 81.1621 44.1797C80.4818 45.3796 79.8942 46.6722 79.3994 48.0576C78.9046 49.4307 78.5273 50.9027 78.2676 52.4736C78.0078 54.0322 77.8779 55.7021 77.8779 57.4834C77.8779 58.3245 77.9089 59.209 77.9707 60.1367C78.0326 61.0521 78.1377 61.9551 78.2861 62.8457C78.4469 63.724 78.6572 64.5651 78.917 65.3691C79.1891 66.1608 79.5355 66.8597 79.9561 67.4658C80.3766 68.0719 80.8838 68.5482 81.4775 68.8945C82.0713 69.2533 82.7702 69.4326 83.5742 69.4326C84.3164 69.4326 84.972 69.1852 85.541 68.6904C86.1224 68.208 86.6296 67.571 87.0625 66.7793C86.6667 65.9629 86.3203 65.1094 86.0234 64.2188C85.7389 63.3281 85.4977 62.4375 85.2998 61.5469C85.1143 60.6439 84.972 59.7533 84.873 58.875C84.7865 57.9967 84.7432 57.168 84.7432 56.3887C84.7432 56.0299 84.7493 55.5785 84.7617 55.0342C84.7865 54.4899 84.8359 53.9209 84.9102 53.3271C84.9844 52.721 85.0895 52.1149 85.2256 51.5088C85.374 50.9027 85.5719 50.3646 85.8193 49.8945C86.0667 49.4121 86.3698 49.0225 86.7285 48.7256C87.0996 48.4163 87.5511 48.2617 88.083 48.2617C88.5654 48.2617 88.9798 48.4102 89.3262 48.707C89.6849 49.0039 89.988 49.3874 90.2354 49.8574C90.4827 50.3151 90.6868 50.8408 90.8477 51.4346C91.0085 52.016 91.1322 52.5973 91.2188 53.1787C91.3177 53.7477 91.3796 54.2858 91.4043 54.793C91.4414 55.3001 91.46 55.7145 91.46 56.0361C91.46 56.7412 91.4105 57.5081 91.3115 58.3369C91.2249 59.1657 91.0827 60.0254 90.8848 60.916C90.6992 61.7943 90.4642 62.6849 90.1797 63.5879C89.8952 64.4785 89.5612 65.3382 89.1777 66.167C89.5488 66.7484 89.9508 67.2803 90.3838 67.7627C90.8167 68.2575 91.2868 68.6781 91.7939 69.0244C92.3135 69.3831 92.8639 69.6553 93.4453 69.8408C94.0267 70.0387 94.6452 70.1377 95.3008 70.1377C96.3027 70.1377 97.1934 69.946 97.9727 69.5625C98.752 69.1914 99.4261 68.6842 99.9951 68.041C100.564 67.3978 101.04 66.6432 101.424 65.7773C101.82 64.9115 102.135 63.9899 102.37 63.0127C102.605 62.0355 102.772 61.0273 102.871 59.9883C102.97 58.9492 103.02 57.9287 103.02 56.9268C103.02 55.4919 102.883 54.0632 102.611 52.6406C102.352 51.2057 101.962 49.8203 101.442 48.4844C100.935 47.1361 100.298 45.8558 99.5312 44.6436C98.7767 43.4313 97.8984 42.3242 96.8965 41.3223C95.8945 40.3203 94.7751 39.4482 93.5381 38.7061C92.3135 37.9639 90.9775 37.3825 89.5303 36.9619L89.9014 36.5166C91.6084 36.9001 93.1732 37.5 94.5957 38.3164C96.0182 39.1328 97.2985 40.11 98.4365 41.248C99.5869 42.3861 100.589 43.654 101.442 45.0518C102.308 46.4495 103.026 47.9215 103.595 49.4678C104.176 51.014 104.609 52.6097 104.894 54.2549C105.19 55.9001 105.339 57.5329 105.339 59.1533C105.339 60.1553 105.258 61.1943 105.098 62.2705C104.949 63.3343 104.708 64.3796 104.374 65.4062C104.04 66.4206 103.607 67.3792 103.075 68.2822C102.556 69.1976 101.925 69.9954 101.183 70.6758C100.44 71.3685 99.5745 71.9128 98.585 72.3086C97.6077 72.7168 96.5007 72.9209 95.2637 72.9209C94.4596 72.9209 93.7051 72.8096 93 72.5869C92.2949 72.3643 91.6393 72.0488 91.0332 71.6406C90.4271 71.2448 89.8643 70.7686 89.3447 70.2119C88.8376 69.6553 88.3737 69.043 87.9531 68.375C87.5944 68.9069 87.2109 69.3955 86.8027 69.8408C86.3945 70.2861 85.9554 70.6634 85.4854 70.9727C85.0153 71.2943 84.5143 71.5417 83.9824 71.7148C83.4629 71.888 82.9124 71.9746 82.3311 71.9746C81.3662 71.9746 80.5189 71.7643 79.7891 71.3438C79.0716 70.9355 78.4531 70.3913 77.9336 69.7109C77.4264 69.043 77.0059 68.2822 76.6719 67.4287C76.3503 66.5876 76.0905 65.734 75.8926 64.8682C75.707 64.0023 75.5771 63.1673 75.5029 62.3633C75.4287 61.5469 75.3916 60.8418 75.3916 60.248C75.3916 56.3763 76.041 52.7891 77.3398 49.4863C78.651 46.1712 80.5807 43.1839 83.1289 40.5244L83.4814 40.8027ZM86.1348 54.6816C86.1348 55.3867 86.1719 56.1351 86.2461 56.9268C86.3327 57.7184 86.4564 58.5286 86.6172 59.3574C86.7904 60.1862 87.0007 61.015 87.248 61.8438C87.4954 62.6602 87.7923 63.4518 88.1387 64.2188C88.349 63.5632 88.5283 62.889 88.6768 62.1963C88.8252 61.5036 88.9489 60.8294 89.0479 60.1738C89.1468 59.5059 89.2148 58.875 89.252 58.2812C89.3014 57.6875 89.3262 57.1556 89.3262 56.6855C89.3262 55.9681 89.2891 55.2321 89.2148 54.4775C89.153 53.723 89.0479 53.0365 88.8994 52.418C88.751 51.7995 88.5531 51.2923 88.3057 50.8965C88.0706 50.5007 87.7799 50.3027 87.4336 50.3027C87.2357 50.3027 87.0625 50.3955 86.9141 50.5811C86.778 50.7666 86.6605 51.0016 86.5615 51.2861C86.4749 51.5583 86.4007 51.8675 86.3389 52.2139C86.277 52.5602 86.2275 52.9004 86.1904 53.2344C86.1657 53.556 86.1471 53.8467 86.1348 54.1064C86.1348 54.3662 86.1348 54.5579 86.1348 54.6816ZM119.496 63.3467C119.174 63.8167 118.785 64.2559 118.327 64.6641C117.882 65.0723 117.387 65.4248 116.843 65.7217C116.311 66.0186 115.748 66.2536 115.154 66.4268C114.573 66.5999 113.985 66.6865 113.392 66.6865C112.55 66.6865 111.765 66.5752 111.035 66.3525C110.305 66.1423 109.668 65.8145 109.124 65.3691C108.58 64.9238 108.153 64.3672 107.844 63.6992C107.535 63.0189 107.38 62.2272 107.38 61.3242C107.38 60.4336 107.541 59.6048 107.862 58.8379C108.196 58.0586 108.648 57.3844 109.217 56.8154C109.798 56.234 110.479 55.7764 111.258 55.4424C112.037 55.1084 112.872 54.9414 113.763 54.9414C114.183 54.9414 114.573 55.0033 114.932 55.127C115.303 55.2383 115.624 55.4115 115.896 55.6465C116.169 55.8691 116.379 56.1475 116.527 56.4814C116.688 56.8154 116.769 57.1989 116.769 57.6318C116.769 58.1514 116.663 58.609 116.453 59.0049C116.243 59.4007 115.965 59.7471 115.618 60.0439C115.272 60.3408 114.876 60.5882 114.431 60.7861C113.998 60.984 113.54 61.1449 113.058 61.2686C112.588 61.3923 112.118 61.485 111.647 61.5469C111.19 61.5964 110.769 61.6211 110.386 61.6211H109.94C110.101 62.7467 110.547 63.6064 111.276 64.2002C112.006 64.7939 113.014 65.0908 114.301 65.0908C115.216 65.0908 116.107 64.93 116.973 64.6084C117.851 64.2868 118.643 63.8415 119.348 63.2725L119.496 63.3467ZM109.885 61.0645H110.349C110.794 61.0645 111.252 60.9964 111.722 60.8604C112.192 60.7119 112.612 60.5016 112.983 60.2295C113.367 59.945 113.682 59.5986 113.93 59.1904C114.177 58.7822 114.301 58.3184 114.301 57.7988C114.301 57.2917 114.189 56.8711 113.967 56.5371C113.757 56.2031 113.385 56.0361 112.854 56.0361C112.309 56.0361 111.845 56.2031 111.462 56.5371C111.091 56.8587 110.788 57.2607 110.553 57.7432C110.318 58.2132 110.145 58.7142 110.033 59.2461C109.934 59.7656 109.885 60.2295 109.885 60.6377V61.0645ZM128.959 62.0107C128.959 62.654 128.841 63.2601 128.606 63.8291C128.371 64.3981 128.044 64.8929 127.623 65.3135C127.202 65.734 126.708 66.068 126.139 66.3154C125.582 66.5628 124.976 66.6865 124.32 66.6865C123.887 66.6865 123.461 66.6185 123.04 66.4824C122.619 66.3464 122.23 66.1546 121.871 65.9072C121.525 65.6475 121.222 65.3382 120.962 64.9795C120.702 64.6208 120.517 64.2249 120.405 63.792L120.832 63.6807C121.154 64.0765 121.525 64.4043 121.945 64.6641C122.378 64.9238 122.867 65.0537 123.411 65.0537C123.869 65.0537 124.289 64.9548 124.673 64.7568C125.069 64.5589 125.403 64.2992 125.675 63.9775C125.959 63.6559 126.176 63.2848 126.324 62.8643C126.485 62.4313 126.565 61.9922 126.565 61.5469C126.565 61.015 126.491 60.5758 126.343 60.2295C126.194 59.8708 125.996 59.5739 125.749 59.3389C125.514 59.0915 125.248 58.8812 124.951 58.708C124.654 58.5225 124.351 58.3369 124.042 58.1514C123.745 57.9658 123.454 57.7555 123.17 57.5205C122.898 57.2855 122.663 56.9824 122.465 56.6113C122.452 57.3411 122.329 58.1081 122.094 58.9121C121.859 59.7161 121.537 60.4954 121.129 61.25C120.733 62.0046 120.275 62.7096 119.756 63.3652C119.236 64.0208 118.686 64.5713 118.104 65.0166L117.956 64.7568C118.352 64.3363 118.698 63.8105 118.995 63.1797C119.292 62.5488 119.533 61.887 119.719 61.1943C119.917 60.4893 120.059 59.7842 120.146 59.0791C120.244 58.374 120.294 57.7308 120.294 57.1494C120.294 56.8402 120.263 56.5371 120.201 56.2402C120.139 55.9434 120.108 55.6527 120.108 55.3682C120.108 55.0218 120.207 54.7559 120.405 54.5703C120.616 54.3848 120.882 54.292 121.203 54.292C121.451 54.292 121.648 54.3477 121.797 54.459C121.945 54.5703 122.081 54.7188 122.205 54.9043C122.329 55.0775 122.452 55.2816 122.576 55.5166C122.7 55.7393 122.854 55.9743 123.04 56.2217C123.238 56.4567 123.479 56.6917 123.764 56.9268C124.061 57.1494 124.438 57.3473 124.896 57.5205C125.427 57.7184 125.935 57.9473 126.417 58.207C126.912 58.4544 127.345 58.7513 127.716 59.0977C128.099 59.444 128.402 59.8584 128.625 60.3408C128.848 60.8109 128.959 61.3675 128.959 62.0107ZM142.652 63.3467C142.331 63.8167 141.941 64.2559 141.483 64.6641C141.038 65.0723 140.543 65.4248 139.999 65.7217C139.467 66.0186 138.904 66.2536 138.311 66.4268C137.729 66.5999 137.142 66.6865 136.548 66.6865C135.707 66.6865 134.921 66.5752 134.191 66.3525C133.462 66.1423 132.825 65.8145 132.28 65.3691C131.736 64.9238 131.309 64.3672 131 63.6992C130.691 63.0189 130.536 62.2272 130.536 61.3242C130.536 60.4336 130.697 59.6048 131.019 58.8379C131.353 58.0586 131.804 57.3844 132.373 56.8154C132.954 56.234 133.635 55.7764 134.414 55.4424C135.193 55.1084 136.028 54.9414 136.919 54.9414C137.34 54.9414 137.729 55.0033 138.088 55.127C138.459 55.2383 138.781 55.4115 139.053 55.6465C139.325 55.8691 139.535 56.1475 139.684 56.4814C139.844 56.8154 139.925 57.1989 139.925 57.6318C139.925 58.1514 139.82 58.609 139.609 59.0049C139.399 59.4007 139.121 59.7471 138.774 60.0439C138.428 60.3408 138.032 60.5882 137.587 60.7861C137.154 60.984 136.696 61.1449 136.214 61.2686C135.744 61.3923 135.274 61.485 134.804 61.5469C134.346 61.5964 133.925 61.6211 133.542 61.6211H133.097C133.257 62.7467 133.703 63.6064 134.433 64.2002C135.162 64.7939 136.171 65.0908 137.457 65.0908C138.372 65.0908 139.263 64.93 140.129 64.6084C141.007 64.2868 141.799 63.8415 142.504 63.2725L142.652 63.3467ZM133.041 61.0645H133.505C133.95 61.0645 134.408 60.9964 134.878 60.8604C135.348 60.7119 135.769 60.5016 136.14 60.2295C136.523 59.945 136.839 59.5986 137.086 59.1904C137.333 58.7822 137.457 58.3184 137.457 57.7988C137.457 57.2917 137.346 56.8711 137.123 56.5371C136.913 56.2031 136.542 56.0361 136.01 56.0361C135.465 56.0361 135.002 56.2031 134.618 56.5371C134.247 56.8587 133.944 57.2607 133.709 57.7432C133.474 58.2132 133.301 58.7142 133.189 59.2461C133.09 59.7656 133.041 60.2295 133.041 60.6377V61.0645ZM151.763 63.959C151.367 64.7754 150.81 65.4248 150.093 65.9072C149.375 66.3773 148.559 66.6123 147.644 66.6123C146.889 66.6123 146.215 66.3835 145.621 65.9258C145.027 65.4681 144.502 64.8682 144.044 64.126C143.599 63.3838 143.215 62.5488 142.894 61.6211C142.584 60.681 142.325 59.7285 142.114 58.7637C141.916 57.7988 141.768 56.8711 141.669 55.9805C141.582 55.0775 141.539 54.292 141.539 53.624C141.539 52.8076 141.582 51.9108 141.669 50.9336C141.756 49.9564 141.898 48.973 142.096 47.9834C142.294 46.9814 142.547 46.0104 142.856 45.0703C143.178 44.1302 143.562 43.3014 144.007 42.584C144.465 41.8542 144.99 41.2728 145.584 40.8398C146.178 40.3945 146.858 40.1719 147.625 40.1719C148.281 40.1719 148.812 40.3636 149.221 40.7471C149.629 41.1305 149.951 41.6068 150.186 42.1758C150.421 42.7324 150.575 43.3262 150.649 43.957C150.736 44.5879 150.779 45.1507 150.779 45.6455C150.779 46.9814 150.618 48.2988 150.297 49.5977C149.988 50.8841 149.555 52.1025 148.998 53.2529C148.454 54.391 147.811 55.43 147.068 56.3701C146.326 57.2979 145.528 58.0771 144.675 58.708C144.848 59.5368 145.052 60.347 145.287 61.1387C145.535 61.918 145.831 62.6169 146.178 63.2354C146.524 63.8415 146.92 64.3363 147.365 64.7197C147.823 65.0908 148.342 65.2764 148.924 65.2764C149.505 65.2764 150.006 65.1589 150.427 64.9238C150.847 64.6888 151.237 64.3424 151.596 63.8848L151.763 63.959ZM144.118 52.5107C144.106 52.7829 144.1 53.1169 144.1 53.5127C144.112 53.9085 144.131 54.3477 144.155 54.8301C144.192 55.3001 144.242 55.8073 144.304 56.3516C144.366 56.8958 144.446 57.4525 144.545 58.0215C145.374 57.2793 146.079 56.4567 146.66 55.5537C147.242 54.6507 147.718 53.6797 148.089 52.6406C148.46 51.5892 148.726 50.4883 148.887 49.3379C149.06 48.1751 149.146 46.9691 149.146 45.7197C149.146 45.5589 149.14 45.3486 149.128 45.0889C149.128 44.8291 149.109 44.5508 149.072 44.2539C149.035 43.957 148.979 43.6602 148.905 43.3633C148.843 43.0664 148.751 42.8005 148.627 42.5654C148.516 42.318 148.367 42.1201 148.182 41.9717C148.008 41.8109 147.798 41.7305 147.551 41.7305C147.081 41.7305 146.666 41.9655 146.308 42.4355C145.961 42.8932 145.658 43.4808 145.398 44.1982C145.151 44.9157 144.941 45.7074 144.768 46.5732C144.607 47.4391 144.477 48.2741 144.378 49.0781C144.279 49.8698 144.211 50.5811 144.174 51.2119C144.137 51.8428 144.118 52.2757 144.118 52.5107ZM167.571 63.3467C167.336 63.792 167.083 64.2188 166.811 64.627C166.551 65.0352 166.254 65.3939 165.92 65.7031C165.586 66.0124 165.209 66.2598 164.788 66.4453C164.368 66.6309 163.885 66.7236 163.341 66.7236C162.722 66.7236 162.19 66.569 161.745 66.2598C161.3 65.9629 160.916 65.5671 160.595 65.0723C160.285 64.5651 160.032 63.9899 159.834 63.3467C159.648 62.7035 159.494 62.0479 159.37 61.3799C159.246 60.7119 159.154 60.0563 159.092 59.4131C159.03 58.7575 158.974 58.1699 158.925 57.6504C158.69 57.8359 158.405 58.1947 158.071 58.7266C157.737 59.2461 157.397 59.8584 157.051 60.5635C156.704 61.2686 156.37 62.0355 156.049 62.8643C155.74 63.693 155.486 64.5094 155.288 65.3135C155.251 65.4867 155.189 65.666 155.103 65.8516C155.028 66.0371 154.929 66.2041 154.806 66.3525C154.694 66.5133 154.558 66.6432 154.397 66.7422C154.237 66.8535 154.057 66.9092 153.859 66.9092C153.538 66.9092 153.303 66.7979 153.154 66.5752C153.018 66.3525 152.919 66.099 152.857 65.8145C152.499 64.2435 152.245 62.7406 152.097 61.3057C151.961 59.8708 151.893 58.4359 151.893 57.001C151.893 56.6546 151.948 56.3577 152.06 56.1104C152.183 55.8506 152.344 55.6403 152.542 55.4795C152.74 55.3063 152.975 55.1826 153.247 55.1084C153.519 55.0218 153.804 54.9785 154.101 54.9785C154.138 54.9785 154.193 54.9785 154.268 54.9785C154.354 54.9785 154.435 54.9909 154.509 55.0156C154.583 55.028 154.645 55.0527 154.694 55.0898C154.744 55.127 154.762 55.1764 154.75 55.2383C154.428 56.8587 154.274 58.5101 154.286 60.1924C154.299 61.8623 154.385 63.4704 154.546 65.0166C154.682 64.3981 154.88 63.6992 155.14 62.9199C155.412 62.1283 155.721 61.3366 156.067 60.5449C156.426 59.7409 156.81 58.9801 157.218 58.2627C157.638 57.5329 158.065 56.9206 158.498 56.4258C158.708 56.1908 158.919 55.9928 159.129 55.832C159.352 55.6589 159.624 55.5723 159.945 55.5723C160.131 55.5723 160.285 55.6094 160.409 55.6836C160.533 55.7578 160.632 55.8506 160.706 55.9619C160.793 56.0732 160.854 56.2031 160.892 56.3516C160.941 56.4876 160.978 56.6237 161.003 56.7598C161.065 57.1185 161.127 57.5824 161.188 58.1514C161.25 58.7204 161.325 59.3265 161.411 59.9697C161.51 60.613 161.628 61.2624 161.764 61.918C161.9 62.5612 162.073 63.1488 162.283 63.6807C162.493 64.2002 162.747 64.627 163.044 64.9609C163.341 65.2949 163.693 65.4619 164.102 65.4619C164.436 65.4619 164.757 65.4001 165.066 65.2764C165.388 65.1403 165.691 64.9733 165.976 64.7754C166.26 64.5651 166.526 64.3301 166.773 64.0703C167.021 63.7982 167.243 63.5322 167.441 63.2725L167.571 63.3467ZM178.333 71.6221C178.333 72.3271 178.265 73.0322 178.129 73.7373C177.993 74.4424 177.789 75.1227 177.517 75.7783C177.257 76.4463 176.929 77.0648 176.533 77.6338C176.137 78.2152 175.686 78.7161 175.179 79.1367C174.672 79.5573 174.103 79.8913 173.472 80.1387C172.853 80.3861 172.179 80.5098 171.449 80.5098C170.769 80.5098 170.126 80.3737 169.52 80.1016C168.913 79.8294 168.382 79.4645 167.924 79.0068C167.479 78.5492 167.126 78.0111 166.866 77.3926C166.606 76.7865 166.477 76.1432 166.477 75.4629C166.477 74.7207 166.625 74.0094 166.922 73.3291C167.231 72.6488 167.633 72.0241 168.128 71.4551C168.623 70.8861 169.179 70.3851 169.798 69.9521C170.429 69.5192 171.072 69.179 171.728 68.9316L171.839 69.1543C170.639 69.8099 169.711 70.6943 169.056 71.8076C168.4 72.9209 168.072 74.1641 168.072 75.5371C168.072 76.0938 168.146 76.6257 168.295 77.1328C168.456 77.6523 168.691 78.11 169 78.5059C169.309 78.9017 169.693 79.2171 170.15 79.4521C170.62 79.6995 171.159 79.8232 171.765 79.8232C172.606 79.8232 173.305 79.5944 173.861 79.1367C174.418 78.679 174.863 78.1038 175.197 77.4111C175.531 76.7308 175.766 75.9886 175.902 75.1846C176.051 74.3805 176.125 73.626 176.125 72.9209C176.125 72.1663 176.063 71.4242 175.939 70.6943C175.828 69.9645 175.686 69.2347 175.513 68.5049C175.352 67.7751 175.185 67.0452 175.012 66.3154C174.839 65.5856 174.696 64.8496 174.585 64.1074C174.325 64.4167 174.047 64.7135 173.75 64.998C173.453 65.2702 173.132 65.5114 172.785 65.7217C172.451 65.9196 172.092 66.0742 171.709 66.1855C171.326 66.3092 170.924 66.3711 170.503 66.3711C169.872 66.3711 169.315 66.2536 168.833 66.0186C168.363 65.7959 167.967 65.4867 167.646 65.0908C167.324 64.695 167.076 64.2373 166.903 63.7178C166.743 63.1982 166.662 62.6416 166.662 62.0479C166.662 61.3799 166.755 60.7243 166.94 60.0811C167.126 59.4378 167.386 58.8317 167.72 58.2627C168.054 57.6937 168.45 57.1618 168.907 56.667C169.365 56.1722 169.86 55.7393 170.392 55.3682L170.614 55.4795C170.082 56.2464 169.662 57.0752 169.353 57.9658C169.056 58.8441 168.907 59.7471 168.907 60.6748C168.907 61.0706 168.951 61.4974 169.037 61.9551C169.124 62.4128 169.26 62.8333 169.445 63.2168C169.643 63.6003 169.903 63.9219 170.225 64.1816C170.559 64.429 170.967 64.5527 171.449 64.5527C172.031 64.5527 172.575 64.429 173.082 64.1816C173.589 63.9219 174.053 63.5941 174.474 63.1982C174.437 62.7406 174.418 62.2829 174.418 61.8252C174.418 61.1943 174.461 60.5387 174.548 59.8584C174.634 59.1781 174.789 58.5286 175.012 57.9102C175.247 57.2793 175.562 56.7103 175.958 56.2031C176.354 55.6836 176.867 55.263 177.498 54.9414L177.646 55.0156C177.35 55.3249 177.102 55.6712 176.904 56.0547C176.706 56.4258 176.546 56.8154 176.422 57.2236C176.311 57.6318 176.23 58.0524 176.181 58.4854C176.144 58.9059 176.125 59.3203 176.125 59.7285C176.125 60.8665 176.236 61.9242 176.459 62.9014C176.694 63.8786 176.948 64.8372 177.22 65.7773C177.504 66.7174 177.758 67.6576 177.98 68.5977C178.215 69.5501 178.333 70.5583 178.333 71.6221ZM93.6494 104.356C92.9196 104.864 92.0475 105.327 91.0332 105.748C90.0312 106.181 88.9613 106.552 87.8232 106.861C86.6976 107.171 85.5472 107.412 84.3721 107.585C83.1969 107.758 82.0837 107.845 81.0322 107.845C80.624 107.845 80.1602 107.826 79.6406 107.789C79.1335 107.752 78.6139 107.678 78.082 107.566C77.5625 107.455 77.0553 107.3 76.5605 107.103C76.0658 106.917 75.6328 106.676 75.2617 106.379C75.1257 106.503 74.9958 106.614 74.8721 106.713C74.7484 106.824 74.6185 106.936 74.4824 107.047L74.2598 106.639C74.3587 106.515 74.4453 106.391 74.5195 106.268C74.6061 106.156 74.6989 106.045 74.7979 105.934C74.5999 105.686 74.4453 105.42 74.334 105.136C74.235 104.851 74.1855 104.53 74.1855 104.171C74.1855 104.01 74.2165 103.874 74.2783 103.763C74.3525 103.651 74.4762 103.596 74.6494 103.596C74.7113 103.596 74.7731 103.602 74.835 103.614C74.8968 103.627 74.9587 103.645 75.0205 103.67C75.2184 103.744 75.4102 103.818 75.5957 103.893C75.7936 103.979 75.9915 104.053 76.1895 104.115C77.4759 102.408 78.7005 100.707 79.8633 99.0127C81.0384 97.318 82.1702 95.5924 83.2588 93.8359C83.9762 92.6608 84.6813 91.5166 85.374 90.4033C86.0667 89.2777 86.7223 88.1458 87.3408 87.0078C87.9593 85.8574 88.5345 84.6823 89.0664 83.4824C89.6107 82.2826 90.0869 81.0208 90.4951 79.6973V79.6787C89.5674 79.6416 88.6273 79.623 87.6748 79.623C86.7471 79.623 85.7884 79.6416 84.7988 79.6787C83.8216 79.7158 82.832 79.7962 81.8301 79.9199C80.8281 80.0312 79.8324 80.1921 78.8428 80.4023C77.8532 80.6126 76.8883 80.891 75.9482 81.2373C75.8864 81.262 75.8245 81.2868 75.7627 81.3115C75.7008 81.3239 75.6328 81.3301 75.5586 81.3301C75.3483 81.3301 75.2122 81.2559 75.1504 81.1074C75.0885 80.9466 75.0576 80.7796 75.0576 80.6064C75.0576 80.3219 75.1071 80.0312 75.2061 79.7344C75.305 79.4375 75.4225 79.1592 75.5586 78.8994C75.6947 78.6149 75.9111 78.3675 76.208 78.1572C76.5049 77.9346 76.8451 77.749 77.2285 77.6006C77.612 77.4398 78.0202 77.3099 78.4531 77.2109C78.8984 77.112 79.3376 77.0378 79.7705 76.9883C80.2035 76.9264 80.6117 76.8893 80.9951 76.877C81.3786 76.8522 81.7064 76.8398 81.9785 76.8398C82.597 76.8398 83.2712 76.8708 84.001 76.9326C84.7308 76.9945 85.4792 77.0872 86.2461 77.2109C87.013 77.3223 87.7861 77.4645 88.5654 77.6377C89.3571 77.7985 90.1178 77.984 90.8477 78.1943C90.8477 78.182 90.8477 78.1758 90.8477 78.1758C90.86 78.1634 90.8662 78.151 90.8662 78.1387C90.8786 78.0645 90.8971 77.9717 90.9219 77.8604C90.959 77.7367 90.9961 77.6253 91.0332 77.5264C91.0827 77.4274 91.1445 77.3408 91.2188 77.2666C91.3053 77.1924 91.4043 77.1553 91.5156 77.1553C91.6517 77.1553 91.7878 77.2048 91.9238 77.3037C92.0599 77.4027 92.1836 77.5326 92.2949 77.6934C92.4186 77.8542 92.5299 78.0397 92.6289 78.25C92.7279 78.4603 92.8145 78.6706 92.8887 78.8809C93.4082 79.0788 93.8968 79.3014 94.3545 79.5488L94.2432 79.957C94.0576 79.9323 93.8721 79.9137 93.6865 79.9014C93.501 79.889 93.3154 79.8766 93.1299 79.8643C93.1299 79.9137 93.1299 79.957 93.1299 79.9941C93.1423 80.0312 93.1484 80.0684 93.1484 80.1055C93.1484 80.7487 93.0124 81.4661 92.7402 82.2578C92.4681 83.0495 92.1403 83.8535 91.7568 84.6699C91.3734 85.474 90.9652 86.2471 90.5322 86.9893C90.0993 87.7191 89.7282 88.3499 89.4189 88.8818C88.6891 90.1188 87.8604 91.4176 86.9326 92.7783C86.0049 94.139 85.0153 95.4997 83.9639 96.8604C82.9248 98.221 81.8363 99.5508 80.6982 100.85C79.5726 102.148 78.4469 103.354 77.3213 104.468C78.3109 104.703 79.3252 104.851 80.3643 104.913C81.4033 104.975 82.4857 105.006 83.6113 105.006C85.2565 105.006 86.9079 104.919 88.5654 104.746C90.2354 104.585 91.862 104.326 93.4453 103.967L93.6494 104.356ZM100.348 92.2773C100.348 92.4134 100.298 92.5371 100.199 92.6484C100.1 92.7474 99.9827 92.7969 99.8467 92.7969C99.7354 92.7969 99.6178 92.766 99.4941 92.7041C99.3704 92.6299 99.2282 92.5495 99.0674 92.4629C98.9189 92.3763 98.7396 92.3021 98.5293 92.2402C98.3314 92.166 98.1025 92.1289 97.8428 92.1289C97.2367 92.1289 96.6924 92.3206 96.21 92.7041C95.7399 93.0752 95.3379 93.5391 95.0039 94.0957C94.6823 94.6523 94.4349 95.2461 94.2617 95.877C94.0885 96.5078 94.002 97.0768 94.002 97.584C94.002 97.9427 94.0329 98.2952 94.0947 98.6416C94.1566 98.9756 94.2617 99.2848 94.4102 99.5693C94.571 99.8415 94.7874 100.064 95.0596 100.237C95.3317 100.398 95.6781 100.479 96.0986 100.479C96.5439 100.479 96.9707 100.398 97.3789 100.237C97.7871 100.064 98.1706 99.8415 98.5293 99.5693C98.5417 99.1735 98.6035 98.7591 98.7148 98.3262C98.8385 97.8809 98.9932 97.4479 99.1787 97.0273C99.3643 96.5944 99.5745 96.1862 99.8096 95.8027C100.057 95.4193 100.311 95.0791 100.57 94.7822L100.812 94.9307C100.675 95.3512 100.576 95.7842 100.515 96.2295C100.453 96.6748 100.422 97.1139 100.422 97.5469C100.422 97.9922 100.459 98.4128 100.533 98.8086C100.607 99.2044 100.737 99.5508 100.923 99.8477C101.108 100.132 101.362 100.361 101.684 100.534C102.005 100.695 102.42 100.775 102.927 100.775C103.545 100.775 104.114 100.633 104.634 100.349C105.153 100.064 105.611 99.7054 106.007 99.2725L106.155 99.3467C105.933 99.7796 105.642 100.194 105.283 100.59C104.924 100.986 104.522 101.344 104.077 101.666C103.644 101.975 103.18 102.223 102.686 102.408C102.191 102.594 101.702 102.687 101.22 102.687C100.539 102.687 99.9827 102.489 99.5498 102.093C99.1169 101.709 98.82 101.221 98.6592 100.627C98.1396 101.146 97.5583 101.586 96.915 101.944C96.2842 102.291 95.6162 102.464 94.9111 102.464C94.3916 102.464 93.9277 102.365 93.5195 102.167C93.1237 101.981 92.7897 101.728 92.5176 101.406C92.2454 101.085 92.0352 100.707 91.8867 100.274C91.7507 99.8291 91.6826 99.3652 91.6826 98.8828C91.6826 98.3262 91.7692 97.7572 91.9424 97.1758C92.1279 96.582 92.3753 96.0007 92.6846 95.4316C93.0062 94.8626 93.3835 94.3245 93.8164 93.8174C94.2493 93.3102 94.7194 92.8649 95.2266 92.4814C95.7461 92.098 96.2904 91.7949 96.8594 91.5723C97.4284 91.3496 98.0098 91.2383 98.6035 91.2383C98.7396 91.2383 98.9066 91.2568 99.1045 91.2939C99.3024 91.3187 99.4941 91.3682 99.6797 91.4424C99.8652 91.5166 100.02 91.6217 100.144 91.7578C100.28 91.8939 100.348 92.0671 100.348 92.2773ZM120.053 99.1611C119.805 99.6436 119.521 100.107 119.199 100.553C118.878 100.998 118.507 101.394 118.086 101.74C117.665 102.087 117.195 102.359 116.676 102.557C116.156 102.767 115.569 102.872 114.913 102.872C113.726 102.872 112.748 102.6 111.981 102.056C111.227 101.511 110.59 100.751 110.07 99.7734C109.922 99.8353 109.773 99.891 109.625 99.9404C109.489 99.9775 109.353 100.021 109.217 100.07C109.192 100.281 109.167 100.472 109.143 100.646C109.118 100.819 109.093 100.979 109.068 101.128C109.044 101.289 109.013 101.462 108.976 101.647C108.938 101.833 108.877 102.006 108.79 102.167C108.703 102.328 108.586 102.458 108.438 102.557C108.289 102.668 108.085 102.724 107.825 102.724C107.454 102.724 107.194 102.606 107.046 102.371C106.897 102.148 106.78 101.901 106.693 101.629C106.508 101.035 106.335 100.318 106.174 99.4766C106.025 98.6354 105.896 97.7695 105.784 96.8789C105.673 95.9759 105.586 95.0853 105.524 94.207C105.463 93.3288 105.432 92.5495 105.432 91.8691C105.432 91.0527 105.456 90.193 105.506 89.29C105.555 88.3747 105.642 87.4531 105.766 86.5254C105.889 85.5977 106.056 84.6823 106.267 83.7793C106.489 82.8639 106.768 81.9919 107.102 81.1631C107.436 80.3343 107.831 79.5674 108.289 78.8623C108.759 78.1449 109.31 77.5264 109.94 77.0068C110.225 76.7718 110.547 76.5677 110.905 76.3945C111.276 76.2214 111.641 76.1348 112 76.1348C112.148 76.1348 112.315 76.1719 112.501 76.2461C112.699 76.3079 112.798 76.4316 112.798 76.6172C112.798 76.7161 112.748 76.8337 112.649 76.9697C110.881 79.4066 109.6 81.998 108.809 84.7441C108.017 87.4779 107.621 90.3786 107.621 93.4463C107.621 94.708 107.677 95.9264 107.788 97.1016C107.912 98.2643 108.073 99.4827 108.271 100.757C108.32 100.114 108.388 99.4271 108.475 98.6973C108.574 97.9551 108.703 97.2253 108.864 96.5078C109.037 95.7904 109.254 95.1038 109.514 94.4482C109.773 93.7803 110.095 93.1927 110.479 92.6855C110.862 92.1784 111.307 91.7764 111.814 91.4795C112.334 91.1702 112.94 91.0156 113.633 91.0156C114.363 91.0156 114.969 91.2321 115.451 91.665C115.934 92.0856 116.175 92.667 116.175 93.4092C116.175 93.8298 116.107 94.2441 115.971 94.6523C115.835 95.0605 115.649 95.4502 115.414 95.8213C115.191 96.18 114.932 96.5202 114.635 96.8418C114.35 97.1634 114.053 97.4417 113.744 97.6768C113.299 98.0231 112.81 98.3571 112.278 98.6787C112.476 99.0622 112.699 99.4271 112.946 99.7734C113.194 100.107 113.466 100.404 113.763 100.664C114.06 100.911 114.387 101.109 114.746 101.258C115.117 101.406 115.525 101.48 115.971 101.48C116.367 101.48 116.75 101.419 117.121 101.295C117.505 101.159 117.863 100.986 118.197 100.775C118.531 100.553 118.84 100.299 119.125 100.015C119.422 99.7178 119.688 99.4085 119.923 99.0869L120.053 99.1611ZM112.724 93.3535C112.105 93.3535 111.598 93.5514 111.202 93.9473C110.806 94.3307 110.479 94.8193 110.219 95.4131C109.971 95.9945 109.78 96.6377 109.644 97.3428C109.507 98.0479 109.396 98.7158 109.31 99.3467C109.903 99.1117 110.466 98.8271 110.998 98.4932C111.542 98.1468 112.012 97.7695 112.408 97.3613C112.804 96.9531 113.119 96.5202 113.354 96.0625C113.59 95.5924 113.707 95.1038 113.707 94.5967C113.707 94.2751 113.62 93.9906 113.447 93.7432C113.286 93.4834 113.045 93.3535 112.724 93.3535ZM127.883 92.2773C127.883 92.4134 127.833 92.5371 127.734 92.6484C127.635 92.7474 127.518 92.7969 127.382 92.7969C127.271 92.7969 127.153 92.766 127.029 92.7041C126.906 92.6299 126.763 92.5495 126.603 92.4629C126.454 92.3763 126.275 92.3021 126.064 92.2402C125.867 92.166 125.638 92.1289 125.378 92.1289C124.772 92.1289 124.228 92.3206 123.745 92.7041C123.275 93.0752 122.873 93.5391 122.539 94.0957C122.217 94.6523 121.97 95.2461 121.797 95.877C121.624 96.5078 121.537 97.0768 121.537 97.584C121.537 97.9427 121.568 98.2952 121.63 98.6416C121.692 98.9756 121.797 99.2848 121.945 99.5693C122.106 99.8415 122.323 100.064 122.595 100.237C122.867 100.398 123.213 100.479 123.634 100.479C124.079 100.479 124.506 100.398 124.914 100.237C125.322 100.064 125.706 99.8415 126.064 99.5693C126.077 99.1735 126.139 98.7591 126.25 98.3262C126.374 97.8809 126.528 97.4479 126.714 97.0273C126.899 96.5944 127.11 96.1862 127.345 95.8027C127.592 95.4193 127.846 95.0791 128.105 94.7822L128.347 94.9307C128.211 95.3512 128.112 95.7842 128.05 96.2295C127.988 96.6748 127.957 97.1139 127.957 97.5469C127.957 97.9922 127.994 98.4128 128.068 98.8086C128.143 99.2044 128.272 99.5508 128.458 99.8477C128.644 100.132 128.897 100.361 129.219 100.534C129.54 100.695 129.955 100.775 130.462 100.775C131.08 100.775 131.649 100.633 132.169 100.349C132.688 100.064 133.146 99.7054 133.542 99.2725L133.69 99.3467C133.332 100.027 132.855 100.608 132.262 101.091C131.668 101.573 131.019 102.031 130.313 102.464C129.967 102.674 129.676 102.909 129.441 103.169C129.219 103.429 129.039 103.682 128.903 103.93C128.767 104.189 128.668 104.437 128.606 104.672C128.557 104.907 128.532 105.105 128.532 105.266C128.532 105.464 128.563 105.655 128.625 105.841C128.687 106.026 128.78 106.193 128.903 106.342C129.027 106.49 129.182 106.608 129.367 106.694C129.565 106.793 129.794 106.843 130.054 106.843C130.301 106.843 130.579 106.781 130.889 106.657C131.198 106.534 131.55 106.292 131.946 105.934L132.206 106.138C132.082 106.385 131.922 106.626 131.724 106.861C131.538 107.096 131.322 107.307 131.074 107.492C130.827 107.678 130.555 107.826 130.258 107.938C129.961 108.061 129.646 108.123 129.312 108.123C129.027 108.123 128.736 108.08 128.439 107.993C128.155 107.907 127.889 107.771 127.642 107.585C127.407 107.412 127.209 107.189 127.048 106.917C126.899 106.645 126.825 106.323 126.825 105.952C126.825 105.284 127.06 104.666 127.53 104.097C128 103.54 128.613 103.045 129.367 102.612C129.318 102.625 129.213 102.637 129.052 102.649C128.891 102.674 128.792 102.687 128.755 102.687C128.075 102.687 127.518 102.489 127.085 102.093C126.652 101.709 126.355 101.221 126.194 100.627C125.675 101.146 125.093 101.586 124.45 101.944C123.819 102.291 123.151 102.464 122.446 102.464C121.927 102.464 121.463 102.365 121.055 102.167C120.659 101.981 120.325 101.728 120.053 101.406C119.781 101.085 119.57 100.707 119.422 100.274C119.286 99.8291 119.218 99.3652 119.218 98.8828C119.218 98.3262 119.304 97.7572 119.478 97.1758C119.663 96.582 119.91 96.0007 120.22 95.4316C120.541 94.8626 120.919 94.3245 121.352 93.8174C121.785 93.3102 122.255 92.8649 122.762 92.4814C123.281 92.098 123.826 91.7949 124.395 91.5723C124.964 91.3496 125.545 91.2383 126.139 91.2383C126.275 91.2383 126.442 91.2568 126.64 91.2939C126.838 91.3187 127.029 91.3682 127.215 91.4424C127.4 91.5166 127.555 91.6217 127.679 91.7578C127.815 91.8939 127.883 92.0671 127.883 92.2773ZM145.064 99.3467C144.792 99.8044 144.471 100.231 144.1 100.627C143.741 101.023 143.339 101.369 142.894 101.666C142.461 101.963 141.991 102.192 141.483 102.353C140.976 102.526 140.451 102.612 139.906 102.612C139.102 102.612 138.391 102.476 137.772 102.204C137.166 101.932 136.641 101.567 136.195 101.109C135.75 100.639 135.379 100.095 135.082 99.4766C134.785 98.8581 134.55 98.2148 134.377 97.5469C134.204 96.8665 134.08 96.1738 134.006 95.4688C133.932 94.7637 133.895 94.0895 133.895 93.4463C133.895 92.8525 133.919 92.2464 133.969 91.6279C134.018 90.9971 134.092 90.3538 134.191 89.6982C133.808 89.7106 133.431 89.7168 133.06 89.7168C132.701 89.7168 132.342 89.7168 131.983 89.7168C131.748 89.7168 131.482 89.7106 131.186 89.6982C130.889 89.6859 130.61 89.6364 130.351 89.5498C130.091 89.4632 129.874 89.3333 129.701 89.1602C129.528 88.987 129.441 88.7334 129.441 88.3994C129.441 88.2139 129.479 88.0654 129.553 87.9541C129.615 87.8428 129.707 87.7624 129.831 87.7129C129.942 87.651 130.078 87.6139 130.239 87.6016C130.388 87.5768 130.542 87.5645 130.703 87.5645C130.889 87.5645 131.328 87.5954 132.021 87.6572C132.713 87.7191 133.548 87.7871 134.525 87.8613C134.835 86.4017 135.23 84.9668 135.713 83.5566C136.208 82.1465 136.764 80.86 137.383 79.6973H137.643C137.247 81.0456 136.894 82.4062 136.585 83.7793C136.288 85.1523 136.065 86.5439 135.917 87.9541C136.82 88.016 137.748 88.0716 138.7 88.1211C139.665 88.1582 140.605 88.1768 141.521 88.1768C142.869 88.1768 143.964 88.1644 144.805 88.1396C145.646 88.1149 146.308 88.084 146.79 88.0469C147.359 87.9974 147.786 87.9479 148.07 87.8984L148.145 88.2139C147.402 88.387 146.555 88.554 145.603 88.7148C144.65 88.8633 143.636 88.9993 142.56 89.123C141.483 89.2344 140.37 89.3333 139.22 89.4199C138.069 89.5065 136.925 89.5745 135.787 89.624C135.762 89.8714 135.75 90.125 135.75 90.3848C135.75 90.6322 135.75 90.8796 135.75 91.127C135.75 91.7207 135.775 92.3763 135.824 93.0938C135.886 93.8112 135.991 94.5348 136.14 95.2646C136.288 95.9821 136.486 96.6872 136.733 97.3799C136.993 98.0602 137.327 98.6663 137.735 99.1982C138.156 99.7178 138.657 100.138 139.238 100.46C139.82 100.782 140.506 100.942 141.298 100.942C142.028 100.942 142.683 100.782 143.265 100.46C143.858 100.138 144.421 99.7425 144.953 99.2725L145.064 99.3467ZM155.9 99.3467C155.579 99.8167 155.189 100.256 154.731 100.664C154.286 101.072 153.791 101.425 153.247 101.722C152.715 102.019 152.152 102.254 151.559 102.427C150.977 102.6 150.39 102.687 149.796 102.687C148.955 102.687 148.169 102.575 147.439 102.353C146.71 102.142 146.073 101.814 145.528 101.369C144.984 100.924 144.557 100.367 144.248 99.6992C143.939 99.0189 143.784 98.2272 143.784 97.3242C143.784 96.4336 143.945 95.6048 144.267 94.8379C144.601 94.0586 145.052 93.3844 145.621 92.8154C146.202 92.234 146.883 91.7764 147.662 91.4424C148.441 91.1084 149.276 90.9414 150.167 90.9414C150.588 90.9414 150.977 91.0033 151.336 91.127C151.707 91.2383 152.029 91.4115 152.301 91.6465C152.573 91.8691 152.783 92.1475 152.932 92.4814C153.092 92.8154 153.173 93.1989 153.173 93.6318C153.173 94.1514 153.068 94.609 152.857 95.0049C152.647 95.4007 152.369 95.7471 152.022 96.0439C151.676 96.3408 151.28 96.5882 150.835 96.7861C150.402 96.984 149.944 97.1449 149.462 97.2686C148.992 97.3923 148.522 97.485 148.052 97.5469C147.594 97.5964 147.174 97.6211 146.79 97.6211H146.345C146.506 98.7467 146.951 99.6064 147.681 100.2C148.41 100.794 149.419 101.091 150.705 101.091C151.62 101.091 152.511 100.93 153.377 100.608C154.255 100.287 155.047 99.8415 155.752 99.2725L155.9 99.3467ZM146.289 97.0645H146.753C147.198 97.0645 147.656 96.9964 148.126 96.8604C148.596 96.7119 149.017 96.5016 149.388 96.2295C149.771 95.945 150.087 95.5986 150.334 95.1904C150.581 94.7822 150.705 94.3184 150.705 93.7988C150.705 93.2917 150.594 92.8711 150.371 92.5371C150.161 92.2031 149.79 92.0361 149.258 92.0361C148.714 92.0361 148.25 92.2031 147.866 92.5371C147.495 92.8587 147.192 93.2607 146.957 93.7432C146.722 94.2132 146.549 94.7142 146.438 95.2461C146.339 95.7656 146.289 96.2295 146.289 96.6377V97.0645ZM170.15 99.1611C169.903 99.6436 169.618 100.107 169.297 100.553C168.975 100.998 168.604 101.394 168.184 101.74C167.763 102.087 167.293 102.359 166.773 102.557C166.254 102.767 165.666 102.872 165.011 102.872C163.823 102.872 162.846 102.6 162.079 102.056C161.325 101.511 160.688 100.751 160.168 99.7734C160.02 99.8353 159.871 99.891 159.723 99.9404C159.587 99.9775 159.451 100.021 159.314 100.07C159.29 100.281 159.265 100.472 159.24 100.646C159.215 100.819 159.191 100.979 159.166 101.128C159.141 101.289 159.11 101.462 159.073 101.647C159.036 101.833 158.974 102.006 158.888 102.167C158.801 102.328 158.684 102.458 158.535 102.557C158.387 102.668 158.183 102.724 157.923 102.724C157.552 102.724 157.292 102.606 157.144 102.371C156.995 102.148 156.878 101.901 156.791 101.629C156.605 101.035 156.432 100.318 156.271 99.4766C156.123 98.6354 155.993 97.7695 155.882 96.8789C155.771 95.9759 155.684 95.0853 155.622 94.207C155.56 93.3288 155.529 92.5495 155.529 91.8691C155.529 91.0527 155.554 90.193 155.604 89.29C155.653 88.3747 155.74 87.4531 155.863 86.5254C155.987 85.5977 156.154 84.6823 156.364 83.7793C156.587 82.8639 156.865 81.9919 157.199 81.1631C157.533 80.3343 157.929 79.5674 158.387 78.8623C158.857 78.1449 159.407 77.5264 160.038 77.0068C160.323 76.7718 160.644 76.5677 161.003 76.3945C161.374 76.2214 161.739 76.1348 162.098 76.1348C162.246 76.1348 162.413 76.1719 162.599 76.2461C162.797 76.3079 162.896 76.4316 162.896 76.6172C162.896 76.7161 162.846 76.8337 162.747 76.9697C160.978 79.4066 159.698 81.998 158.906 84.7441C158.115 87.4779 157.719 90.3786 157.719 93.4463C157.719 94.708 157.774 95.9264 157.886 97.1016C158.009 98.2643 158.17 99.4827 158.368 100.757C158.418 100.114 158.486 99.4271 158.572 98.6973C158.671 97.9551 158.801 97.2253 158.962 96.5078C159.135 95.7904 159.352 95.1038 159.611 94.4482C159.871 93.7803 160.193 93.1927 160.576 92.6855C160.96 92.1784 161.405 91.7764 161.912 91.4795C162.432 91.1702 163.038 91.0156 163.73 91.0156C164.46 91.0156 165.066 91.2321 165.549 91.665C166.031 92.0856 166.272 92.667 166.272 93.4092C166.272 93.8298 166.204 94.2441 166.068 94.6523C165.932 95.0605 165.747 95.4502 165.512 95.8213C165.289 96.18 165.029 96.5202 164.732 96.8418C164.448 97.1634 164.151 97.4417 163.842 97.6768C163.396 98.0231 162.908 98.3571 162.376 98.6787C162.574 99.0622 162.797 99.4271 163.044 99.7734C163.291 100.107 163.563 100.404 163.86 100.664C164.157 100.911 164.485 101.109 164.844 101.258C165.215 101.406 165.623 101.48 166.068 101.48C166.464 101.48 166.848 101.419 167.219 101.295C167.602 101.159 167.961 100.986 168.295 100.775C168.629 100.553 168.938 100.299 169.223 100.015C169.52 99.7178 169.785 99.4085 170.021 99.0869L170.15 99.1611ZM162.821 93.3535C162.203 93.3535 161.696 93.5514 161.3 93.9473C160.904 94.3307 160.576 94.8193 160.316 95.4131C160.069 95.9945 159.877 96.6377 159.741 97.3428C159.605 98.0479 159.494 98.7158 159.407 99.3467C160.001 99.1117 160.564 98.8271 161.096 98.4932C161.64 98.1468 162.11 97.7695 162.506 97.3613C162.902 96.9531 163.217 96.5202 163.452 96.0625C163.687 95.5924 163.805 95.1038 163.805 94.5967C163.805 94.2751 163.718 93.9906 163.545 93.7432C163.384 93.4834 163.143 93.3535 162.821 93.3535Z" fill="#787878"/>
<path d="M129.973 114.043C96.4524 114.043 64.9294 109.551 41.2079 101.412C17.2594 93.1894 4.06768 82.1608 4.06768 70.3592C4.06768 58.5576 17.2594 47.529 41.2079 39.3042C64.9294 31.1599 96.4524 26.6752 129.973 26.6752C163.494 26.6752 195.017 31.167 218.736 39.3042C242.687 47.529 255.876 58.5576 255.876 70.3592C255.876 82.1608 242.687 93.1894 218.736 101.412C195.017 109.559 163.492 114.043 129.973 114.043ZM129.973 28.0534C96.6014 28.0534 65.2367 32.5121 41.657 40.6092C18.3067 48.6259 5.44596 59.1911 5.44596 70.3592C5.44596 81.5273 18.3067 92.0925 41.657 100.109C65.2367 108.206 96.6014 112.665 129.973 112.665C163.345 112.665 194.71 108.206 218.289 100.109C241.637 92.0925 254.498 81.5249 254.498 70.3592C254.498 59.1935 241.637 48.6259 218.289 40.6092C194.71 32.5121 163.345 28.0534 129.973 28.0534Z" fill="#C3937C"/>
<path d="M30.8365 42.2523C23.3494 44.0041 17.5478 49.0822 12.9615 55.0587C10.3397 58.4772 8.08667 62.1676 5.97551 65.9194C3.93765 69.5412 -0.543652 76.1305 0.0544687 80.4568C1.25544 89.126 13.64 88.2957 20.5881 89.2461C26.0728 89.9955 30.8885 91.5866 35.6593 94.433C39.8272 96.9224 43.7304 99.8255 47.9196 102.282C56.2271 107.152 65.3454 110.793 74.8515 112.462C84.3978 114.138 93.5446 113.265 102.949 111.232C108.488 110.034 113.987 109.015 119.666 108.79C125.198 108.57 130.737 108.873 136.262 109.168C147.359 109.761 158.455 110.358 169.551 110.958C186.118 111.847 205.346 113.935 219.98 104.339C227.375 99.4851 231.453 91.2934 238.524 86.1349C244.101 82.0663 255.333 81.3115 259.054 74.9568C263.187 67.8905 255.221 60.1297 249.292 56.3495C245.056 53.6497 240.261 51.8151 235.691 49.7725L220.443 42.9521C215.455 40.7203 210.481 38.4603 205.471 36.2664C200.896 34.2687 196.227 32.5003 191.256 31.8313C180.854 30.4294 170.255 32.5405 159.796 31.985C148.893 31.4128 138.129 29.4719 127.337 27.9234C122.344 27.2142 117.335 26.5688 112.301 26.1858C107.138 25.7934 101.708 25.4033 96.5588 26.1267C92.0197 26.765 89.0126 29.3253 85.4309 31.9211C80.8398 35.2498 75.8279 35.6257 70.3455 35.0252C65.4329 34.4885 60.6385 33.7675 55.688 34.0488C46.4784 34.563 37.5579 37.4482 29.7916 42.4249C29.4748 42.6258 29.7679 43.1341 30.0871 42.9308C38.2344 37.7362 47.6372 34.8465 57.2956 34.5689C65.57 34.3538 75.0572 38.1293 82.8564 34.2332C86.8754 32.2285 89.7596 28.5286 94.1569 27.2236C98.9938 25.7863 104.691 26.3111 109.668 26.5948C119.978 27.1858 130.165 28.9589 140.371 30.453C149.879 31.8407 159.468 32.985 169.097 32.6847C179.388 32.3608 189.459 30.9353 199.412 34.4507C209.239 37.9236 218.696 42.8031 228.207 47.0562C232.803 49.1129 237.405 51.1508 241.994 53.2241C246.219 55.1343 250.602 57.2431 253.732 60.7656C256.938 64.3804 261.508 69.4603 259.054 73.9568C257.218 77.3209 250.819 79.5367 247.453 80.9977C244.086 82.4587 240.623 83.7826 237.668 86.0616C234.566 88.4517 232.063 91.4991 229.547 94.4637C223.942 101.083 217.79 106.027 209.362 108.544C201.41 110.92 192.986 111.256 184.74 111.081C164.73 110.651 144.761 108.322 124.746 108.147C119.989 108.105 115.233 108.343 110.535 109.124C105.637 109.937 100.843 111.232 95.9394 112.05C86.3033 113.656 76.4946 112.797 67.1422 110.055C58.1278 107.412 49.8652 103.074 42.0826 97.8822C38.4064 95.433 34.7278 92.9176 30.6497 91.1705C26.3258 89.3194 21.8032 88.9104 17.2074 88.2059C12.7156 87.5156 5.64199 87.0597 2.55446 83.4568C-1.55437 78.6482 3.33717 71.929 5.99206 67.1227C9.78646 60.2526 14.0962 53.2714 20.2311 48.2359C23.3566 45.6255 27.0439 43.7742 31.0044 42.8268C31.3708 42.7417 31.2148 42.1766 30.8483 42.2617L30.8365 42.2523Z" fill="#C3937C"/>
<path d="M95.4027 27.2639C120.032 17.6183 146.767 14.6259 172.92 18.5876C173.435 18.6656 173.657 17.8783 173.137 17.7956C146.846 13.7966 119.965 16.7898 95.1971 26.4743C94.7101 26.6657 94.9228 27.4577 95.4146 27.2639H95.4027Z" fill="#C3937C"/>
<path d="M115.439 21.0155C125.368 13.5307 137.758 11.143 149.718 8.95855C150.238 8.86399 150.018 8.07437 149.501 8.16894C137.465 10.3628 125.006 12.7813 115.015 20.3087C114.599 20.6231 115.015 21.3347 115.429 21.0179L115.439 21.0155Z" fill="#C3937C"/>
<path d="M122.732 16.6159C132.897 7.36747 147.444 3.86622 160.716 7.44785C160.821 7.47669 160.933 7.46275 161.027 7.4091C161.121 7.35546 161.191 7.2665 161.22 7.16179C161.248 7.05708 161.234 6.9452 161.181 6.85077C161.127 6.75633 161.038 6.68708 160.933 6.65824C147.373 2.99623 132.543 6.58967 122.162 16.0367C121.772 16.3913 122.351 16.9823 122.741 16.6159H122.732Z" fill="#C3937C"/>
<path d="M124.493 15.9752C137.195 15.6892 150.262 15.091 161.094 7.64645C161.525 7.34858 161.116 6.63698 160.681 6.93722C149.966 14.3085 137.063 14.8712 124.493 15.1549C123.966 15.1549 123.966 15.987 124.493 15.9752Z" fill="#C3937C"/>
<path d="M130.077 13.3061C132.514 11.3396 135.084 9.54488 137.77 7.93487C138.224 7.66537 137.81 6.95613 137.356 7.22564C134.612 8.87342 131.986 10.7109 129.498 12.7246C129.087 13.0555 129.67 13.6324 130.077 13.3038V13.3061Z" fill="#C3937C"/>
<path d="M135.89 11.8356C139.288 9.37459 143.16 7.76227 147.103 6.39817C147.6 6.22796 147.385 5.43598 146.886 5.60856C142.867 6.99866 138.928 8.63226 135.477 11.1311C135.054 11.4385 135.46 12.1501 135.89 11.8404V11.8356Z" fill="#C3937C"/>
<path d="M143.233 10.2328C147.227 8.43254 151.488 7.29699 155.848 6.871C156.368 6.81899 156.373 5.99864 155.848 6.05065C151.345 6.49223 146.945 7.66525 142.82 9.52353C142.347 9.73867 142.753 10.4455 143.233 10.2328Z" fill="#C3937C"/>
<path d="M134.063 12.9799C137.105 14.1606 140.376 14.6343 143.628 14.3653C144.151 14.3227 144.155 13.5024 143.628 13.5473C140.45 13.8137 137.254 13.3496 134.283 12.1903C133.794 11.9941 133.574 12.7861 134.063 12.9799Z" fill="#C3937C"/>
<path d="M140.64 11.2966C144.728 12.2423 149.096 12.6371 153.222 11.7033C153.735 11.5874 153.517 10.7955 153.002 10.9113C149.03 11.812 144.791 11.4267 140.86 10.507C140.347 10.3865 140.127 11.1761 140.64 11.2966Z" fill="#C3937C"/>
<path d="M146.619 9.49521C150.595 9.59214 154.626 9.6347 158.579 9.15478C159.097 9.09095 159.104 8.2706 158.579 8.33443C154.626 8.80726 150.595 8.77416 146.619 8.67723C146.092 8.66305 146.092 9.48339 146.619 9.49521Z" fill="#C3937C"/>
<path d="M158.002 16.7672C168.509 12.6963 179.688 10.6369 190.955 10.6962C191.059 10.6883 191.155 10.6417 191.226 10.5656C191.296 10.4896 191.336 10.3897 191.336 10.286C191.336 10.1823 191.296 10.0824 191.226 10.0064C191.155 9.9303 191.059 9.88368 190.955 9.87582C179.615 9.8144 168.365 11.8842 157.789 15.9776C157.302 16.1667 157.515 16.9587 158.007 16.7672H158.002Z" fill="#C3937C"/>
<path d="M163.416 14.6253C173.581 6.1287 188.419 4.97029 200.121 11.1855C200.594 11.4219 200.357 10.429 199.885 10.1808C194.029 7.05046 186.902 5.9789 180.298 6.66741C173.694 7.35592 167.918 9.77293 162.834 14.0437C162.428 14.3842 163.012 14.961 163.413 14.6253H163.416Z" fill="#C3937C"/>
<path d="M163.837 14.552C170.432 15.3602 177.09 15.5359 183.719 15.0768C189.081 14.6962 195.863 14.578 200.466 11.5023C200.904 11.2115 200.495 10.5023 200.053 10.7931C197.554 12.4621 194.615 12.9208 191.71 13.3652C188.461 13.8585 185.196 14.1927 181.913 14.3676C175.88 14.6789 169.832 14.4653 163.837 13.7293C163.314 13.6655 163.317 14.4858 163.837 14.5497V14.552Z" fill="#C3937C"/>
<path d="M169.503 12.8664C173.017 10.1288 177.088 8.31549 181.393 7.22564C181.903 7.09561 181.686 6.30363 181.175 6.43366C176.726 7.5637 172.551 9.45972 168.924 12.2872C168.508 12.6111 169.092 13.1879 169.503 12.8664Z" fill="#C3937C"/>
<path d="M180.556 11.2541C184.06 9.09847 188.137 8.05882 192.246 8.27292C192.773 8.29892 192.771 7.47858 192.246 7.45494C187.992 7.24213 183.773 8.32 180.142 10.5472C179.69 10.8214 180.102 11.5307 180.556 11.2564V11.2541Z" fill="#C3937C"/>
<path d="M174.225 12.1052C176.749 12.8144 179.154 13.7908 181.759 14.2211C184.299 14.6239 186.882 14.693 189.44 14.4267C189.96 14.3771 189.965 13.5567 189.44 13.6064C186.674 13.8973 183.881 13.7883 181.147 13.2825C178.842 12.8381 176.69 11.9492 174.442 11.3132C174.339 11.2914 174.232 11.3096 174.143 11.3642C174.053 11.4187 173.988 11.5055 173.96 11.6066C173.932 11.7078 173.944 11.8158 173.993 11.9085C174.042 12.0011 174.125 12.0715 174.225 12.1052Z" fill="#C3937C"/>
<path d="M182.395 10.961C187.178 12.5567 192.298 13.4858 197.348 13.0674C197.87 13.0225 197.875 12.2021 197.348 12.247C192.362 12.6608 187.336 11.7458 182.612 10.1713C182.111 10.0035 181.903 10.7955 182.395 10.961Z" fill="#C3937C"/>
<path d="M109.547 6.9112C112.02 10.273 112.462 14.6631 110.207 18.2778C108.079 21.6751 103.949 23.2212 100.419 24.7106C99.9465 24.9115 100.15 25.7059 100.637 25.5002C104.62 23.8217 108.843 21.545 110.97 17.5095C112.966 13.7388 112.753 9.88998 110.256 6.49748C109.947 6.07904 109.235 6.48566 109.547 6.9112Z" fill="#C3937C"/>
<path d="M110.034 7.19965C109.306 7.18546 108.573 7.18073 107.845 7.15236C107.45 7.15523 107.055 7.13312 106.663 7.08617C106.494 6.43998 106.652 6.17519 107.136 6.29182C107.199 6.29097 107.26 6.27588 107.316 6.24767C107.372 6.21946 107.421 6.17888 107.459 6.12901C107.497 6.07913 107.523 6.02127 107.536 5.95978C107.548 5.89829 107.546 5.83479 107.531 5.77408C107.455 5.45256 106.977 4.18304 107.152 3.95609C107.656 3.30596 108.181 4.21141 108.36 4.58493C108.54 4.95846 108.992 4.78116 109.11 4.48801C109.346 3.89226 110.318 3.03172 110.609 3.92535C110.573 3.82133 110.576 4.871 110.559 4.60622C110.561 4.71452 110.605 4.81784 110.682 4.89421C110.758 4.97059 110.862 5.01399 110.97 5.0152C111.107 5.0152 112.278 4.84263 112.332 4.94192C112.751 5.7268 110.573 6.39821 110.19 6.41476C109.665 6.4384 109.661 7.25875 110.19 7.23511C111.372 7.1831 112.869 6.45968 113.122 5.15942C113.384 3.80478 111.847 4.13576 110.97 4.19486L111.379 4.60622C111.327 3.64166 111.821 2.47852 110.346 2.37213C109.204 2.28466 108.675 3.37215 108.318 4.26342L109.067 4.16412C108.696 3.39106 107.932 2.35558 106.956 2.91824C105.817 3.57546 106.519 5.04594 106.741 5.99158L107.136 5.47148C106.259 5.47148 104.958 5.84501 105.393 7.01288C105.954 8.52355 108.914 7.99635 110.041 8.01999C110.571 8.03181 110.571 7.21147 110.041 7.19965H110.034Z" fill="#C3937C"/>
<path d="M110.743 5.97741C110.117 5.3131 109.06 4.89229 108.24 5.48331C107.578 5.95614 107.356 6.98452 107.982 7.585C108.609 8.18549 110.032 8.26587 110.819 8.01291C111.606 7.75995 112.131 6.83085 111.661 6.06961C111.384 5.62043 110.675 6.03178 110.951 6.48333C111.559 7.46443 109.266 7.31314 108.824 7.14765C108.278 6.93961 108.337 6.25874 108.873 6.06016C109.346 5.88285 109.852 6.23274 110.159 6.55662C110.524 6.94197 111.105 6.3604 110.739 5.97741H110.743Z" fill="#C3937C"/>
<path d="M130.148 18.2944C139.067 20.9221 148.35 22.1018 157.643 21.7886C158.168 21.772 158.17 20.9517 157.643 20.9682C148.424 21.2828 139.214 20.1151 130.366 17.5095C129.857 17.3606 129.64 18.1502 130.146 18.2991L130.148 18.2944Z" fill="#C3937C"/>
<path d="M138.403 20.2046C148.645 17.722 159.425 18.7888 168.981 23.2307C169.454 23.4505 169.872 22.7437 169.395 22.5215C159.645 17.979 148.642 16.8829 138.188 19.4126C137.675 19.5379 137.893 20.3276 138.406 20.2046H138.403Z" fill="#C3937C"/>
<path d="M138.34 20.5545C147.59 26.4908 158.768 25.9707 169.118 23.8123C169.633 23.7059 171.031 22.9281 170.515 23.0344C160.376 25.148 147.82 25.6657 138.753 19.8477C138.309 19.5616 137.898 20.2708 138.34 20.5569V20.5545Z" fill="#C3937C"/>
<path d="M144.881 20.9777C147.936 20.0912 151.12 19.4079 154.309 19.3228C154.834 19.3086 154.836 18.4907 154.309 18.5048C151.049 18.5923 147.784 19.285 144.664 20.1881C144.158 20.3347 144.373 21.1337 144.881 20.9801V20.9777Z" fill="#C3937C"/>
<path d="M154.742 21.6397C159.189 21.275 163.665 21.7179 167.955 22.947C168.463 23.0912 168.681 22.3016 168.175 22.1574C163.814 20.9063 159.264 20.4529 154.742 20.8193C154.219 20.8619 154.215 21.6822 154.742 21.6397Z" fill="#C3937C"/>
<path d="M148.028 21.6585C149.816 23.4406 152.078 24.6715 154.546 25.2047C155.061 25.3158 155.281 24.5262 154.763 24.4127C152.436 23.9135 150.301 22.7537 148.616 21.0722C148.54 20.9954 148.435 20.9523 148.327 20.9523C148.218 20.9523 148.114 20.9954 148.037 21.0722C147.96 21.149 147.917 21.2532 147.917 21.3618C147.917 21.4705 147.96 21.5746 148.037 21.6514L148.028 21.6585Z" fill="#C3937C"/>
<path d="M154.9 21.6538C157.401 23.2777 160.258 24.2729 163.227 24.5546C163.749 24.6066 163.747 23.7862 163.227 23.7342C160.401 23.4573 157.685 22.5001 155.309 20.9446C154.865 20.6585 154.454 21.3678 154.896 21.6538H154.9Z" fill="#C3937C"/>
<path d="M89.5752 29.3939C93.5511 23.0478 99.3691 18.0662 106.252 15.1147C106.724 14.9066 106.318 14.1998 105.838 14.4054C98.8321 17.427 92.9128 22.5108 88.8683 28.9802C88.587 29.4294 89.2962 29.8407 89.5775 29.3939H89.5752Z" fill="#C3937C"/>
<path d="M92.1685 25.4482C93.8021 17.37 101.303 12.1359 109.469 13.5023C109.984 13.5898 110.207 12.7931 109.687 12.7127C101.105 11.2754 93.1071 16.6773 91.3789 25.2425C91.2749 25.7579 92.0645 25.9778 92.1685 25.46V25.4482Z" fill="#C3937C"/>
<path d="M92.7762 24.8714C96.2439 24.3978 100.154 23.4037 103.054 21.4454C105.955 19.4871 107.769 16.6172 109.505 13.578C109.767 13.1194 109.058 12.7057 108.795 13.1619C107.113 16.1089 104.773 18.6276 101.958 20.5217C99.142 22.4158 95.9271 23.6341 92.5635 24.0818C92.0434 24.1527 92.2632 24.9423 92.781 24.8714H92.7762Z" fill="#C3937C"/>
<path d="M95.6486 21.6562C96.7807 19.3993 98.2481 17.3269 100.001 15.5095C100.367 15.1312 100.367 14.5712 100.001 14.9518C98.1919 16.8165 96.098 18.9242 94.9299 21.2448C94.6935 21.7176 95.4027 22.1314 95.6391 21.6585L95.6486 21.6562Z" fill="#C3937C"/>
<path d="M101.455 17.3464C103.136 15.4859 105.301 14.1289 107.708 13.4267C108.211 13.2778 107.996 12.4811 107.488 12.6347C104.943 13.3753 102.652 14.8056 100.868 16.7672C100.514 17.1549 101.105 17.7365 101.45 17.3464H101.455Z" fill="#C3937C"/>
<path d="M98.138 19.6372C100.362 19.9045 102.618 19.6727 104.741 18.9587C105.237 18.7932 105.025 18.0013 104.521 18.1668C102.468 18.8559 100.288 19.0781 98.138 18.8169C97.6155 18.7554 97.6202 19.5758 98.138 19.6372Z" fill="#C3937C"/>
<path d="M104.249 16.37C105.246 16.497 106.258 16.432 107.23 16.1785C107.741 16.0461 107.524 15.2565 107.01 15.3866C106.109 15.6189 105.172 15.6743 104.249 15.5497C103.727 15.4835 103.731 16.3038 104.249 16.37Z" fill="#C3937C"/>
<path d="M170.461 18.2661C174.392 17.0036 179.615 17.9776 183.055 20.1857C183.501 20.4717 182.653 19.5498 182.208 19.2637C178.603 16.9516 174.362 16.1549 170.243 17.4741C169.742 17.6348 169.957 18.4197 170.461 18.2661Z" fill="#C3937C"/>
<path d="M169.577 18.3606C172.908 21.0368 178.187 20.798 182.17 20.1857C182.69 20.1053 182.468 19.3157 181.953 19.3961C178.319 19.954 173.189 20.2188 170.156 17.7814C169.749 17.4551 169.165 18.032 169.577 18.3606Z" fill="#C3937C"/>
<path d="M171.704 18.7081C174.811 18.912 177.906 19.2797 180.974 19.8098C181.489 19.8973 181.712 19.1006 181.192 19.0178C178.051 18.4759 174.884 18.0987 171.704 17.8878C171.177 17.8547 171.18 18.675 171.704 18.7081Z" fill="#C3937C"/>
<path d="M110.793 22.2377C117.035 21.8166 123.306 22.1467 129.47 23.2212C129.985 23.311 130.207 22.512 129.687 22.4292C123.455 21.3374 117.115 20.9985 110.803 21.4197C110.278 21.4528 110.275 22.2732 110.803 22.2377H110.793Z" fill="#C3937C"/>
<path d="M129.337 22.7839C129.931 22.4697 130.568 22.2465 131.228 22.1219C131.33 22.1054 132.153 21.9209 132.24 22.0273C132.037 21.7791 131.429 22.2212 131.217 22.285C130.914 22.3796 130.775 22.8855 131.117 23.0344L132.02 23.4198L132.399 23.5829C132.313 23.6824 132.194 23.748 132.064 23.7679C131.934 23.7878 131.801 23.7608 131.689 23.6917C131.62 23.6717 131.546 23.6711 131.476 23.6899C131.406 23.7086 131.343 23.746 131.292 23.7981C131.056 24.0723 131.16 24.1432 131.141 24.46L131.224 24.6586C131.141 24.6843 131.051 24.6808 130.97 24.6485C130.889 24.6163 130.822 24.5572 130.779 24.4813C130.57 24.2872 130.413 24.0432 130.323 23.7721C130.087 23.1077 129.888 22.4363 129.035 22.59C128.517 22.6893 128.734 23.4813 129.252 23.382C129.264 23.382 129.914 24.7508 130.051 24.9021C130.326 25.2361 130.706 25.467 131.129 25.557C131.302 25.5856 131.479 25.562 131.638 25.4891C131.796 25.4162 131.93 25.2974 132.02 25.148C132.096 24.995 132.122 24.8224 132.096 24.6539C132.076 24.5659 132.047 24.4803 132.009 24.3985C131.961 24.1952 131.916 24.1858 131.872 24.3725L131.472 24.4766C132.165 24.713 133.217 24.7508 133.363 23.8052C133.51 22.8595 132.167 22.5971 131.538 22.3252C131.507 22.5758 131.474 22.824 131.441 23.0746C131.926 22.9257 132.559 22.6822 132.836 22.2212C132.888 22.1442 132.923 22.0569 132.938 21.9652C132.953 21.8736 132.949 21.7797 132.924 21.69C132.9 21.6003 132.857 21.5169 132.798 21.4454C132.738 21.3739 132.664 21.3159 132.581 21.2755C132.136 21.077 131.481 21.2519 131.018 21.337C130.286 21.4791 129.579 21.7293 128.921 22.0793C128.448 22.3158 128.867 23.025 129.335 22.7886L129.337 22.7839Z" fill="#C3937C"/>
<path d="M48.2434 35.8054C50.3711 33.1552 52.799 30.8762 55.8889 29.3774C60.7283 27.0345 66.3147 26.4553 71.6032 26.096C72.128 26.0605 72.1327 25.2402 71.6032 25.2756C66.3005 25.635 60.7755 26.2213 55.8913 28.4743C52.5579 30.0062 49.9455 32.3916 47.6642 35.2262C47.3356 35.6328 47.9124 36.2167 48.2434 35.8054Z" fill="#C3937C"/>
<path d="M50.6028 33.193C53.9504 24.9328 63.6575 24.0014 71.2699 25.6846C71.7853 25.7981 72.0051 25.0085 71.4898 24.895C63.3738 23.1006 53.3405 24.2709 49.8132 32.9732C49.6146 33.4625 50.409 33.6824 50.6028 33.193Z" fill="#C3937C"/>
<path d="M51.0804 32.9448C55.8086 32.9306 60.6739 32.472 65.265 31.2095C68.3242 30.3632 71.1186 28.7816 72.199 25.642C72.3716 25.1432 71.5796 24.9328 71.4094 25.4246C70.1209 29.1622 66.2083 30.2402 62.7165 30.966C58.8899 31.7433 54.9946 32.1322 51.0898 32.1268C50.9814 32.1268 50.8773 32.1699 50.8006 32.2466C50.7239 32.3233 50.6808 32.4273 50.6808 32.5358C50.6808 32.6443 50.7239 32.7483 50.8006 32.825C50.8773 32.9017 50.9814 32.9448 51.0898 32.9448H51.0804Z" fill="#C3937C"/>
<path d="M54.6785 29.9258C56.5923 28.1482 58.7654 26.6719 61.123 25.5475C61.5959 25.3111 61.1845 24.6137 60.7093 24.8383C58.2855 25.9981 56.0532 27.5217 54.0898 29.3561C53.7045 29.7178 54.2837 30.3017 54.669 29.9353L54.6785 29.9258Z" fill="#C3937C"/>
<path d="M63.0664 26.8241C64.856 25.7503 66.9456 25.2858 69.0216 25.5002C69.5464 25.5499 69.5417 24.7295 69.0216 24.6799C66.7998 24.4639 64.5672 24.9669 62.6527 26.1149C62.1988 26.3844 62.6101 27.0937 63.0664 26.8241Z" fill="#C3937C"/>
<path d="M55.8251 29.3892C59.3045 30.864 63.1465 31.2601 66.8537 30.5263C67.3714 30.4223 67.1539 29.6327 66.6362 29.7367C63.141 30.4242 59.5203 30.0572 56.2341 28.6823C55.7613 28.4743 55.3357 29.1811 55.8204 29.3915L55.8251 29.3892Z" fill="#C3937C"/>
<path d="M60.7354 27.7366C63.3596 28.6468 68.5724 30.7438 71.2699 29.3939C71.7427 29.1575 70.5441 27.6421 70.0737 27.8785C68.9791 28.427 67.3762 28.2284 66.2083 28.1149C64.4179 27.9324 62.6549 27.5412 60.9553 26.9494C60.4541 26.7768 60.246 27.5688 60.7354 27.739V27.7366Z" fill="#C3937C"/>
<path d="M74.2321 36.361C79.8826 38.185 85.8135 38.9856 91.7454 38.7251C92.2726 38.7038 92.275 37.8834 91.7454 37.9071C85.8874 38.1646 80.0304 37.3753 74.4496 35.5761C73.946 35.413 73.7403 36.2049 74.2321 36.3657V36.361Z" fill="#C3937C"/>
<path d="M80.3386 37.7676C86.3969 36.1014 92.8336 36.4592 98.6699 38.7865C99.1617 38.9804 99.3792 38.1884 98.8874 37.9969C92.9085 35.6273 86.3197 35.2729 80.1211 36.9874C80.0164 37.0163 79.9274 37.0855 79.8738 37.18C79.8201 37.2744 79.8062 37.3863 79.8351 37.491C79.8639 37.5957 79.9332 37.6847 80.0276 37.7383C80.122 37.7919 80.2339 37.8059 80.3386 37.777V37.7676Z" fill="#C3937C"/>
<path d="M80.4261 38.4887C86.1213 42.2476 93.0907 41.9308 98.9631 38.8102C99.4359 38.562 99.0151 37.8646 98.5494 38.101C92.9275 41.0892 86.2915 41.3776 80.8398 37.7818C80.3977 37.491 79.9887 38.2003 80.4261 38.491V38.4887Z" fill="#C3937C"/>
<path d="M86.7265 38.2806C88.3813 37.4673 90.0835 37.1529 91.9275 37.0773C92.4523 37.056 92.4547 36.2356 91.9275 36.2569C89.9487 36.3373 88.1047 36.6966 86.3175 37.5737C85.8447 37.8101 86.2584 38.5194 86.7312 38.283L86.7265 38.2806Z" fill="#C3937C"/>
<path d="M91.4689 38.5217C93.5632 38.3172 95.6725 38.3172 97.7669 38.5217C98.2917 38.5714 98.287 37.751 97.7669 37.7014C95.6724 37.4992 93.5633 37.4992 91.4689 37.7014C90.9488 37.751 90.944 38.5714 91.4689 38.5217Z" fill="#C3937C"/>
<path d="M83.4615 38.4555C85.8296 39.9519 88.5025 40.8994 91.2844 41.2286C91.8045 41.2972 91.7998 40.4768 91.2844 40.4083C88.6478 40.0845 86.1171 39.175 83.8776 37.7463C83.4308 37.4626 83.0194 38.1718 83.4615 38.4555Z" fill="#C3937C"/>
<path d="M89.0196 39.0797C91.1971 39.8995 93.5336 40.2092 95.8495 39.9851C96.372 39.9378 96.3767 39.1175 95.8495 39.1671C93.605 39.3844 91.3405 39.0844 89.23 38.2901C88.7335 38.1057 88.5208 38.8976 89.0101 39.0797H89.0196Z" fill="#C3937C"/>
<path d="M210.06 37.1765C198.974 34.8715 186.804 35.7368 175.875 38.5643C175.364 38.6967 175.582 39.4863 176.092 39.3539C186.865 36.5666 198.908 35.6943 209.842 37.9685C210.355 38.0749 210.575 37.2853 210.06 37.1765Z" fill="#C3937C"/>
<path d="M196.977 35.8952C190.542 33.9212 181.374 34.0039 175.957 38.4579C175.548 38.7912 176.132 39.3681 176.537 39.0371C181.676 34.8243 190.669 34.8172 196.759 36.6848C197.265 36.8408 197.48 36.0489 196.977 35.8952Z" fill="#C3937C"/>
<path d="M198.282 36.3373C195.347 38.8961 191.71 40.5111 187.844 40.9716C183.978 41.4321 180.063 40.7168 176.61 38.9189C176.137 38.6825 175.726 39.3918 176.196 39.6282C183.709 43.4699 192.473 42.4273 198.861 36.9189C199.26 36.5737 198.679 35.9969 198.282 36.3397V36.3373Z" fill="#C3937C"/>
<path d="M180.298 40.9733C183.09 40.0632 186.05 38.9709 188.414 37.1908C188.83 36.8763 188.414 36.1647 188 36.4815C185.683 38.231 182.813 39.2972 180.081 40.1861C179.582 40.3492 179.794 41.1317 180.298 40.9781V40.9733Z" fill="#C3937C"/>
<path d="M187.967 41.6022C190.977 40.0797 194.234 38.6234 196.887 36.5123C197.298 36.1837 196.714 35.6068 196.305 35.9307C193.719 37.9922 190.49 39.4083 187.558 40.8953C187.085 41.1317 187.501 41.841 187.972 41.6046L187.967 41.6022Z" fill="#C3937C"/>
<path d="M179.955 37.0371C181.255 37.037 182.55 37.1958 183.811 37.5099C184.326 37.6258 184.546 36.8361 184.031 36.7203C182.698 36.3891 181.329 36.2223 179.955 36.2238C179.428 36.2404 179.426 37.0607 179.955 37.0442V37.0371Z" fill="#C3937C"/>
<path d="M185.61 35.9661C187.492 36.1553 189.364 36.4122 191.227 36.7368C191.743 36.8267 191.965 36.0276 191.445 35.9472C189.509 35.6099 187.564 35.3428 185.61 35.1458C185.085 35.0938 185.09 35.9118 185.61 35.9661Z" fill="#C3937C"/>
<path d="M199.234 27.7414C207.896 33.4392 217.017 38.406 226.502 42.5904C226.975 42.8031 227.398 42.0963 226.916 41.8811C217.43 37.6968 208.31 32.73 199.648 27.0321C199.206 26.7414 198.795 27.4506 199.234 27.7414Z" fill="#C3937C"/>
<path d="M210.92 33.8077C204.043 32.3018 197.208 29.9637 193.537 23.4789C193.277 23.0179 192.568 23.4316 192.828 23.8926C196.61 30.5665 203.599 33.0441 210.7 34.5973C211.216 34.7108 211.433 33.9212 210.918 33.8077H210.92Z" fill="#C3937C"/>
<path d="M193.343 24.051C200.956 24.1763 208.27 27.6894 211.384 34.9425C211.592 35.4153 212.296 35.0087 212.093 34.5288C208.871 27.0227 201.218 23.3607 193.345 23.2307C192.816 23.2307 192.816 24.0416 193.345 24.051H193.343Z" fill="#C3937C"/>
<path d="M196.067 24.4695C197.967 25.5003 199.668 26.8612 201.09 28.4885C201.438 28.888 202.017 28.3064 201.67 27.9093C200.2 26.2264 198.443 24.8183 196.48 23.7508C196.007 23.4978 195.603 24.2071 196.067 24.46V24.4695Z" fill="#C3937C"/>
<path d="M202.471 26.1598C204.126 28.0511 205.736 30.0582 206.861 32.3254C207.098 32.7982 207.807 32.3845 207.57 31.9117C206.417 29.5854 204.762 27.5215 203.053 25.5782C202.703 25.1834 202.126 25.765 202.473 26.1598H202.471Z" fill="#C3937C"/>
<path d="M195.322 26.7295C196.911 27.2875 198.395 27.9896 200.076 28.2568C200.561 28.3348 200.771 27.5925 200.282 27.5144C198.603 27.2473 197.116 26.5451 195.528 25.9872C195.055 25.8217 194.856 26.5664 195.322 26.7295Z" fill="#C3937C"/>
<path d="M199.126 30.1079C200.818 30.6469 202.573 30.7556 204.308 31.0772C204.823 31.1741 205.045 30.3845 204.525 30.2875C202.792 29.9637 201.036 29.8573 199.346 29.3159C198.842 29.1551 198.636 29.9471 199.126 30.1079Z" fill="#C3937C"/>
<path d="M191.643 27.1031C191.705 26.1763 191.993 23.181 190.837 22.6656C189.681 22.1502 189.104 24.2047 189.062 24.9541L189.641 24.6207C188.695 23.9872 186.539 22.6136 185.539 23.9541C184.688 25.0888 186.147 26.1054 187.123 26.2709V25.5262C186.258 25.6562 182 25.7768 181.913 27.0983C181.825 28.4199 185.92 28.0842 186.688 28.1196C186.598 27.9021 186.508 27.6823 186.416 27.4624C185.433 28.278 185.364 29.5381 186.818 29.784C188.565 30.0771 190.457 29.0038 191.636 27.8194C191.701 27.7458 191.735 27.6505 191.731 27.5528C191.728 27.4552 191.688 27.3624 191.619 27.2933C191.549 27.2242 191.457 27.1839 191.359 27.1806C191.261 27.1773 191.166 27.2113 191.092 27.2756C190.401 27.9973 189.536 28.5289 188.579 28.8194C187.965 28.9991 185.556 29.174 186.962 28.0085C187.239 27.7721 186.993 27.3678 186.688 27.3489C186.215 27.3229 184.759 27.1362 185.742 26.5026C186.078 26.2898 186.925 26.33 187.317 26.2662C187.709 26.2023 187.681 25.5829 187.317 25.5215C186.494 25.5514 186.345 25.3024 186.87 24.7744C186.941 24.2378 187.168 24.1006 187.546 24.3654C188.062 24.3867 188.83 25.0108 189.239 25.2803C189.298 25.3134 189.364 25.3308 189.431 25.3306C189.499 25.3305 189.565 25.3129 189.624 25.2796C189.682 25.2462 189.731 25.1983 189.766 25.1404C189.8 25.0826 189.819 25.0167 189.821 24.9494C189.74 24.3189 190.021 23.9115 190.662 23.7271C190.761 24.1815 190.829 24.6419 190.866 25.1054C190.916 25.7687 190.916 26.435 190.866 27.0983C190.832 27.5924 191.603 27.5901 191.636 27.0983L191.643 27.1031Z" fill="#C3937C"/>
<path d="M190.178 25.7839C189.739 25.7202 189.292 25.8202 188.922 26.065C188.552 26.3097 188.285 26.682 188.172 27.1109C188.058 27.5399 188.107 27.9954 188.308 28.3907C188.51 28.786 188.849 29.0935 189.263 29.2544C191.39 30.1315 192.367 26.2615 190.27 26.07C189.776 26.0251 189.778 26.7958 190.27 26.8407C190.896 26.8974 190.669 27.9069 190.459 28.2591C190.128 28.7934 189.485 28.6658 189.133 28.2237C188.487 27.4104 189.246 26.453 190.178 26.5688C190.669 26.6279 190.665 25.8596 190.178 25.7981V25.7839Z" fill="#C3937C"/>
<path d="M165.742 5.14996C165.541 4.69605 165.168 3.95372 165.269 3.44307C165.09 2.99389 165.198 2.88277 165.598 3.11445C165.937 3.08766 166.094 3.24527 166.071 3.58728C166.089 3.65164 166.124 3.7101 166.172 3.75694C166.22 3.80379 166.279 3.83742 166.344 3.85457C166.409 3.87171 166.477 3.87178 166.542 3.85477C166.607 3.83775 166.666 3.80424 166.714 3.75749C167.246 3.21375 167.789 2.63927 168.456 2.26101C169.016 1.73303 169.459 1.8205 169.785 2.52343C169.542 2.89956 169.254 3.2442 168.927 3.54946C168.711 3.76932 168.851 4.24214 169.198 4.20668C170.447 4.08138 171.629 3.98918 172.759 4.6795V4.01519C171.661 4.57323 170.473 4.93336 169.25 5.07904C169.17 5.085 169.094 5.11572 169.031 5.16696C168.969 5.2182 168.924 5.28745 168.903 5.36519C168.882 5.44293 168.885 5.52535 168.913 5.60111C168.94 5.67686 168.99 5.74225 169.057 5.78827C169.507 5.90175 169.562 6.15943 169.22 6.56133C169.184 7.24692 168.823 7.38404 168.13 6.97032C167.385 6.74167 166.712 6.32191 166.18 5.7528C166.107 5.6818 166.01 5.64219 165.908 5.64258C165.807 5.64296 165.71 5.6833 165.638 5.75485C165.566 5.8264 165.525 5.92339 165.524 6.0248C165.524 6.1262 165.563 6.22385 165.633 6.29655C166.579 7.2422 168.858 8.62284 170.236 7.68665C171.418 6.87576 170.236 5.59677 169.444 5.12395L169.25 5.83318C170.608 5.66822 171.926 5.26823 173.147 4.65113C173.204 4.61664 173.251 4.56794 173.284 4.50974C173.317 4.45154 173.334 4.38582 173.334 4.31897C173.334 4.25212 173.317 4.1864 173.284 4.1282C173.251 4.07 173.204 4.02129 173.147 3.98681C171.91 3.23739 170.603 3.27758 169.198 3.4147L169.47 4.07429C170.028 3.5069 171.558 1.97259 170.515 1.21607C169.135 0.216053 166.969 2.37449 166.168 3.19011L166.813 3.36032C166.622 2.57071 165.804 1.16879 164.808 2.04588C163.938 2.81185 164.728 4.7126 165.087 5.52112C165.288 5.97503 165.953 5.58259 165.754 5.13341L165.742 5.14996Z" fill="#C3937C"/>
<path d="M166.735 4.21379C165.882 4.21379 164.929 4.49275 164.593 5.36038C164.257 6.22801 164.733 6.98925 165.581 7.23748C166.343 7.46207 167.347 7.28949 167.735 6.52825C167.818 6.37206 167.867 6.20036 167.879 6.02413C167.891 5.8479 167.867 5.67101 167.807 5.50479C167.747 5.33856 167.653 5.18667 167.531 5.05881C167.41 4.93095 167.262 4.82995 167.099 4.76226C166.626 4.57549 166.437 5.32256 166.893 5.50459C167.21 5.63225 167.13 6.12162 166.948 6.31785C166.643 6.64173 166.035 6.62045 165.655 6.45969C165.56 6.42268 165.477 6.36337 165.41 6.28687C165.344 6.21036 165.297 6.11894 165.274 6.02041C165.251 5.92188 165.252 5.81918 165.277 5.72111C165.302 5.62305 165.35 5.53253 165.418 5.45731C165.711 5.05304 166.283 4.98448 166.742 4.98448C166.844 4.98448 166.942 4.94388 167.015 4.87162C167.087 4.79935 167.127 4.70134 167.127 4.59914C167.127 4.49694 167.087 4.39892 167.015 4.32666C166.942 4.25439 166.844 4.21379 166.742 4.21379H166.735Z" fill="#C3937C"/>
</svg>
