<svg width="24" height="25" viewBox="0 0 24 25" fill="none" xmlns="http://www.w3.org/2000/svg">
<g id="globe">
<path id="Union" fill-rule="evenodd" clip-rule="evenodd" d="M8.64088 5.23728C9.66227 4.76408 10.8003 4.5 12 4.5C14.9637 4.5 17.551 6.11162 18.9334 8.5063H18.1949C17.5447 8.5063 17.0177 8.75609 17.0177 9.40624C17.0177 9.73579 17.0177 11.4453 14.9922 11.414C13.0198 11.414 13.0198 9.68208 13.0198 9.40624C13.0198 7.97724 12.2327 7.75539 11.2681 7.48348C10.8942 7.37809 10.4937 7.26518 10.1019 7.07157C9.09777 6.57526 8.75474 5.88889 8.64088 5.23728ZM6 4.49927C5.40889 4.94327 4.86858 5.45125 4.38936 6.01293C3.92963 6.55177 3.52611 7.14002 3.1879 7.76862C3.1879 7.76862 3.1879 7.76862 3.18791 7.76862C2.43002 9.17722 2 10.7884 2 12.5C2 17.7887 6.10565 22.1186 11.3036 22.4761C11.3216 22.4774 11.3397 22.4786 11.3578 22.4797C11.5701 22.4932 11.7843 22.5 12 22.5C12.1721 22.5 12.3432 22.4957 12.5131 22.4871C12.5136 22.487 12.5141 22.487 12.5146 22.487C12.9343 22.4657 13.3472 22.4186 13.7517 22.3471C13.8081 22.3371 13.8644 22.3267 13.9204 22.3158C13.9521 22.3096 13.9838 22.3033 14.0153 22.2968C14.8062 22.135 15.563 21.8798 16.2738 21.5433C18.3057 20.5814 19.9615 18.9548 20.9606 16.9443C21.0605 16.7432 21.1539 16.5382 21.2405 16.3296C21.2473 16.3131 21.2541 16.2965 21.2609 16.2799C21.4636 15.7839 21.6276 15.2678 21.7491 14.7357C21.7658 14.6625 21.7817 14.5891 21.7968 14.5153C21.93 13.8644 22 13.1904 22 12.5C22 11.6703 21.8989 10.8642 21.7085 10.0934C21.7009 10.0625 21.6931 10.0316 21.6852 10.0008C21.5218 9.36588 21.2976 8.75532 21.0193 8.17574C19.4065 4.81804 15.9739 2.5 12 2.5C10.533 2.5 9.13977 2.81589 7.88463 3.38337C7.43982 3.58448 7.01235 3.81718 6.60509 4.07862C6.53916 4.12095 6.47376 4.16402 6.40891 4.20784C6.27008 4.30163 6.13374 4.39881 6 4.49927ZM19.3722 15.6118C19.1319 15.5386 18.8793 15.5 18.6216 15.5H18.4053C16.5246 15.5 15 17.0246 15 18.9053V19.9185C16.968 19.1219 18.5468 17.5649 19.3722 15.6118ZM12.1137 20.4992C12.0758 20.4997 12.038 20.5 12 20.5C7.58172 20.5 4 16.9183 4 12.5C4 11.0219 4.40087 9.6374 5.09982 8.44933C6.0509 8.99109 6.52099 9.98703 6.9354 10.865C7.14365 11.3062 7.33784 11.7177 7.57195 12.0267C8.11172 12.7392 8.63461 13.0455 9.16346 13.3553C9.68389 13.6602 10.2101 13.9684 10.7638 14.6705C12.2034 16.4956 12.1816 19.0371 12.1137 20.4992Z" fill="#C3937C"/>
</g>
</svg>
