<svg width="31" height="24" viewBox="0 0 31 24" fill="none" xmlns="http://www.w3.org/2000/svg">
<path fill-rule="evenodd" clip-rule="evenodd" d="M30.6838 5.17164C30.5373 3.94785 30.1124 2.7845 29.4486 1.78932C28.6259 0.877692 27.5103 0.358686 26.3426 0.344432C22.0109 4.47035e-07 15.5 0 15.5 0C15.5 0 8.99222 4.47035e-07 4.65423 0.344432C3.487 0.358397 2.37174 0.877481 1.54984 1.78932C0.883113 2.78354 0.457493 3.94814 0.3131 5.17336C0.119616 7.00635 0.0151012 8.84938 0 10.6946V13.2778C0.0150062 15.1231 0.119521 16.9661 0.3131 18.7991C0.460257 20.0255 0.881999 21.1924 1.54045 22.1952C2.48554 23.118 3.70066 23.6363 4.9642 23.6556C7.44238 23.9156 15.5016 24 15.5016 24C15.5016 24 22.0156 24 26.3473 23.6556C27.5156 23.6406 28.6317 23.121 29.4549 22.209C30.1172 21.2125 30.5408 20.0488 30.6869 18.8249C30.8804 16.9919 30.9849 15.1489 31 13.3037V10.6929C30.9824 8.84765 30.8768 7.00471 30.6838 5.17164ZM12.38 16.4587C12.38 12.679 12.38 10.5598 12.38 6.78014L20.8337 11.6349L12.38 16.4587Z" fill="#C3937C"/>
</svg>
